<?xml version="1.0" encoding="UTF-8"?>
<svg version="1.1" xmlns="http://www.w3.org/2000/svg" width="1254" height="1254">
<path d="M0 0 C413.82 0 827.64 0 1254 0 C1254 413.82 1254 827.64 1254 1254 C840.18 1254 426.36 1254 0 1254 C0 840.18 0 426.36 0 0 Z " fill="#FDF8F1" transform="translate(0,0)"/>
<path d="M0 0 C2.75429455 1.27872615 4.96572444 2.6560283 7.25 4.65234375 C7.85255615 5.17618652 8.4551123 5.7000293 9.07592773 6.23974609 C10.02834351 7.08013428 10.02834351 7.08013428 11 7.9375 C11.99205444 8.8049585 11.99205444 8.8049585 13.00415039 9.68994141 C18.19336974 14.24477728 23.29201541 18.89278993 28.36328125 23.578125 C31.20486802 26.18817507 34.09444397 28.73313163 37.01171875 31.2578125 C39.35002956 33.30670567 41.64090306 35.40448758 43.9375 37.5 C47.72571083 40.91862929 51.61397783 44.10760829 55.66796875 47.203125 C62.56330773 52.51611651 69.21258292 58.14932269 75.875 63.75 C76.4102832 64.19762695 76.94556641 64.64525391 77.49707031 65.10644531 C83.57693721 70.24097867 88.35910023 75.60318323 92.9375 82.0625 C93.77958008 83.2390918 93.77958008 83.2390918 94.63867188 84.43945312 C99.39073947 91.09655778 104.07214212 97.80324051 108.75195312 104.51123047 C114.30804814 112.46598523 119.95230472 120.35193028 125.68847656 128.17773438 C126.76338214 129.67123684 127.79108222 131.19860942 128.8046875 132.734375 C133.62928716 139.78379005 140.63344059 143.85072417 147.66552734 148.45068359 C152.70339775 151.79416044 157.6180262 155.31863349 162.55737305 158.80517578 C166.46984536 161.55810413 170.39068669 164.27808201 174.40625 166.87890625 C184.32091136 173.34043403 191.88948312 180.61225042 199.41796875 189.71435547 C207.22783886 199.13166803 214.80051347 204.15246106 226 209 C227.04414062 209.58523438 228.08828125 210.17046875 229.1640625 210.7734375 C232.45443406 212.19654586 233.68864108 212.30725752 237 211 C239.25607442 209.19029841 239.25607442 209.19029841 241.3125 206.875 C245.35230403 202.64792029 249.55996007 198.79705958 254 195 C255.50143492 193.68914172 257.00146924 192.37667724 258.5 191.0625 C259.66666667 190.04166667 260.83333333 189.02083333 262 188 C266.2662945 190.06850642 268.66826384 192.81467506 271.6484375 196.359375 C274.78996274 199.88706779 278.14099167 203.18059588 281.5 206.5 C285.89069566 210.85199944 290.21150858 215.18835901 294.19921875 219.91796875 C297.23134583 223.42366015 300.43612588 226.77279966 303.609375 230.15063477 C306.40497852 233.15843575 308.87795943 236.15701122 311.1875 239.5625 C316.03738293 246.06493563 323.42293088 250.19344067 330.05761719 254.68408203 C337.08030105 259.44178263 342.29338987 264.28105418 347.54296875 270.96484375 C350.27500478 274.33971178 353.16197695 277.51637627 356.125 280.6875 C359.91871117 284.75371053 363.66010476 288.84593213 367.30078125 293.05078125 C370.05761482 296.21321792 372.87445164 299.32118383 375.6875 302.43359375 C377.19497025 304.10658016 378.69534877 305.78599244 380.1875 307.47265625 C385.01135636 312.90810868 390.02757881 318.08997931 395.2265625 323.1640625 C397.29139489 325.27542633 399.21319849 327.38573268 401.12866211 329.62426758 C405.13840127 334.22339733 409.39602403 338.54019047 413.71484375 342.84765625 C414.52941544 343.66318466 415.34398712 344.47871307 416.1832428 345.31895447 C417.89559193 347.03198008 419.60918842 348.74375965 421.32397461 350.4543457 C423.93002015 353.05503552 426.53068522 355.66101956 429.13085938 358.26757812 C430.80436699 359.94042486 432.47818482 361.61296134 434.15234375 363.28515625 C434.9202977 364.05513443 435.68825165 364.82511261 436.47947693 365.61842346 C440.65755279 369.77864393 444.91085858 373.73248323 449.46339417 377.48216248 C451 379 451 379 452 382 C439.75399701 388.59670075 427.19698228 393.62308675 414 398 C413.25057129 398.24878906 412.50114258 398.49757813 411.72900391 398.75390625 C401.84879507 401.94621928 391.77984531 403.89376625 381.5625 405.6875 C380.4087085 405.89012451 379.25491699 406.09274902 378.06616211 406.30151367 C360.54890007 409.23062962 343.36800386 410.35055287 325.61328125 410.31567383 C322.2678961 410.31251689 318.92340163 410.33606687 315.578125 410.36132812 C298.46323526 410.41148107 281.61077868 409.32761839 265 405 C263.50329633 404.72262152 262.0022577 404.4663909 260.49609375 404.24609375 C218.73455101 397.66490529 178.93508916 380.63308397 140.2109375 364.296875 C120.87598936 356.14894667 101.43632834 348.46751131 81.70117188 341.33935547 C78.51984991 340.18811983 75.3449282 339.02141415 72.171875 337.84765625 C62.41923537 334.28498403 52.5934235 331.43306577 42.50878906 328.95141602 C41.12771973 328.61001587 41.12771973 328.61001587 39.71875 328.26171875 C38.90341797 328.06537842 38.08808594 327.86903809 37.24804688 327.66674805 C35 327 35 327 33.04443359 325.98144531 C30.55074488 324.78433179 28.30572826 324.43671287 25.5703125 324.03515625 C18.96688217 323.00882546 12.42652787 321.75170529 5.875 320.4375 C4.75351562 320.21642578 3.63203125 319.99535156 2.4765625 319.76757812 C1.40921875 319.55423828 0.341875 319.34089844 -0.7578125 319.12109375 C-1.7183252 318.9295874 -2.67883789 318.73808105 -3.66845703 318.54077148 C-6 318 -6 318 -8 317 C-9.35960951 316.75726988 -10.72719765 316.5583358 -12.09716797 316.38330078 C-13.37433685 316.21760841 -13.37433685 316.21760841 -14.67730713 316.04856873 C-15.60621765 315.93199417 -16.53512817 315.81541962 -17.4921875 315.6953125 C-18.93969391 315.50963463 -18.93969391 315.50963463 -20.41644287 315.32020569 C-23.56876015 314.91745514 -26.72179101 314.52070486 -29.875 314.125 C-30.94466003 313.98994049 -32.01432007 313.85488098 -33.11639404 313.71572876 C-68.45941093 309.24292542 -68.45941093 309.24292542 -104 307 C-102.61691002 304.10353192 -101.05287712 301.45645762 -99.26953125 298.7890625 C-98.72176025 297.96801025 -98.17398926 297.14695801 -97.60961914 296.30102539 C-97.01656982 295.41793701 -96.42352051 294.53484863 -95.8125 293.625 C-95.19173584 292.69743896 -94.57097168 291.76987793 -93.93139648 290.81420898 C-87.65434322 281.45175775 -81.30314175 272.14011223 -74.93945312 262.83642578 C-71.55977903 257.89369496 -68.18623052 252.94678865 -64.8125 248 C-63.87676147 246.62920288 -63.87676147 246.62920288 -62.92211914 245.23071289 C-62.33551514 244.37082764 -61.74891113 243.51094238 -61.14453125 242.625 C-60.58451416 241.81683838 -60.02449707 241.00867676 -59.44750977 240.17602539 C-57.8695563 237.88588774 -57.8695563 237.88588774 -56.328125 234.80859375 C-52.47852049 230.16452388 -47.2151045 227.85003195 -41.9375 225.0625 C-30.4030941 218.85906431 -19.45060977 212.41470874 -9.1875 204.25 C-8.41978271 203.64583252 -7.65206543 203.04166504 -6.86108398 202.41918945 C-5.30714031 201.19573489 -3.75477875 199.97026784 -2.20410156 198.74267578 C-0.18065475 197.14283491 1.84910083 195.55160322 3.8828125 193.96484375 C11.00270606 188.4058167 18.03701929 182.75511671 25 177 C29.19009442 178.47702772 32.67337418 180.62892325 36.3125 183.125 C37.66640918 184.04074539 39.02059475 184.95608222 40.375 185.87109375 C41.11621094 186.37366699 41.85742188 186.87624023 42.62109375 187.39404297 C46.03685617 189.69996304 49.47189438 191.97653036 52.90527344 194.25610352 C64.32821367 201.84485731 75.70119015 209.50689452 87.0625 217.1875 C87.80464752 217.68881439 88.54679504 218.19012878 89.31143188 218.70663452 C91.44921458 220.15103584 93.58608528 221.59677581 95.72265625 223.04296875 C96.66978485 223.68274658 96.66978485 223.68274658 97.63604736 224.33544922 C101.80445141 227.16028819 105.91207107 230.05982438 110 233 C109.236875 232.13375 108.47375 231.2675 107.6875 230.375 C104.63248016 226.81915723 101.75035021 223.13852651 98.875 219.4375 C95.04064182 214.51052406 91.09335368 209.71375986 87 205 C82.52563464 199.84608455 78.25655496 194.57238462 74.07421875 189.1796875 C70.97694906 185.20129798 67.77997984 181.32877477 64.5 177.5 C60.73619394 173.10644688 57.10806541 168.63387841 53.5625 164.0625 C49.30762678 158.58269283 44.88029769 153.28434303 40.34008789 148.03930664 C36.60015396 143.71662047 32.97172123 139.31467279 29.37109375 134.875 C25.97328987 130.75509282 22.48460471 126.71470233 18.984375 122.68164062 C12.95372246 115.70422338 12.95372246 115.70422338 13.1796875 112.265625 C14.27238706 107.91564007 16.0705554 103.94793118 18.00390625 99.91796875 C21.78956827 91.24173858 18.81899341 82.52241802 16.375 73.8125 C13.8284049 64.4042242 11.55966616 54.9492038 9.4375 45.4375 C9.21775009 44.45372375 9.21775009 44.45372375 8.99356079 43.45007324 C8.26932103 40.20513472 7.54760777 36.95964788 6.82714844 33.71386719 C5.59005291 28.15935209 4.32734091 22.61075114 3.0625 17.0625 C2.65751259 15.28256107 2.25256008 13.5026142 1.84765625 11.72265625 C1.56792969 10.49417969 1.28820312 9.26570313 1 8 C-2.1294656 11.60077066 -3.58670701 15.72774217 -5.25 20.125 C-9.64623612 31.44827844 -14.58628277 42.51874679 -19.54394531 53.60400391 C-24.9548118 65.72928935 -29.86645962 78.00017886 -34.61132812 90.40136719 C-36.29663866 94.76871551 -38.01308963 99.12329075 -39.734375 103.4765625 C-40.22423889 104.71548248 -40.22423889 104.71548248 -40.72399902 105.97943115 C-42.07875123 109.40406788 -43.43449323 112.82831209 -44.79052734 116.25244141 C-45.79331167 118.78521787 -46.79513675 121.31837216 -47.796875 123.8515625 C-48.10413513 124.62650055 -48.41139526 125.4014386 -48.72796631 126.19985962 C-49.88136783 129.11729902 -51.00772119 132.02316358 -52 135 C-53.5402832 136.31176758 -53.5402832 136.31176758 -55.55078125 137.64453125 C-56.30270752 138.14992432 -57.05463379 138.65531738 -57.8293457 139.17602539 C-58.64878662 139.71606201 -59.46822754 140.25609863 -60.3125 140.8125 C-62.04243756 141.97280982 -63.77157734 143.13430976 -65.5 144.296875 C-66.40105469 144.90080078 -67.30210937 145.50472656 -68.23046875 146.12695312 C-72.79742031 149.21560372 -77.30413872 152.38920216 -81.8125 155.5625 C-83.44360084 156.71021772 -85.07508936 157.85738475 -86.70703125 159.00390625 C-87.44848389 159.52871582 -88.18993652 160.05352539 -88.95385742 160.59423828 C-90.68767474 161.78542312 -92.48318021 162.88603283 -94.2890625 163.96484375 C-97.64887151 166.48712112 -99.4987953 169.42405983 -101.5625 173 C-102.42892447 174.44264853 -103.29751956 175.88399504 -104.16796875 177.32421875 C-104.62478027 178.08524902 -105.0815918 178.8462793 -105.55224609 179.63037109 C-108.06908285 183.74983442 -110.72720084 187.77646552 -113.375 191.8125 C-116.74014014 196.95165152 -120.07947336 202.1016224 -123.3203125 207.3203125 C-123.85479004 208.17906982 -124.38926758 209.03782715 -124.93994141 209.92260742 C-125.95067823 211.5519658 -126.95592464 213.1847481 -127.95458984 214.8215332 C-128.4130127 215.55976318 -128.87143555 216.29799316 -129.34375 217.05859375 C-129.73755859 217.70111084 -130.13136719 218.34362793 -130.53710938 219.00561523 C-134.03754158 223.77781661 -138.02067917 226.84412937 -143.15625 229.70703125 C-143.73983276 230.03611984 -144.32341553 230.36520844 -144.92468262 230.70426941 C-146.77885858 231.74817715 -148.63896386 232.78088083 -150.5 233.8125 C-164.0632494 241.3880269 -177.13395276 248.86085589 -189 259 C-190.99492042 260.67274335 -192.99483302 262.33955333 -195 264 C-195.886875 264.7425 -196.77375 265.485 -197.6875 266.25 C-200 268 -200 268 -203 269 C-201.70771455 265.00911846 -200.28239122 261.12225759 -198.6796875 257.24609375 C-198.23149658 256.15466064 -197.78330566 255.06322754 -197.3215332 253.9387207 C-196.33865051 251.55972987 -195.3526998 249.18200476 -194.36401367 246.80541992 C-192.08612452 241.28838779 -189.87320043 235.8056405 -188.05859375 230.1171875 C-184.45375927 219.02831611 -180.35941081 211.90168247 -171.10668945 204.49731445 C-169.03385824 202.7470802 -167.42708557 201.31097089 -166 199 C-165.89472579 195.39613671 -166.82083824 192.3797201 -168 189 C-168.28359375 187.98292969 -168.5671875 186.96585938 -168.859375 185.91796875 C-169.15328125 185.01691406 -169.4471875 184.11585938 -169.75 183.1875 C-171.94364736 176.27668612 -173.92731852 169.31335616 -175.89355469 162.3347168 C-176.13750977 161.47273682 -176.38146484 160.61075684 -176.6328125 159.72265625 C-176.84824707 158.95703369 -177.06368164 158.19141113 -177.28564453 157.40258789 C-178.12526414 154.57869981 -179.05642549 151.79067325 -180 149 C-180.22391418 149.549478 -180.44782837 150.09895599 -180.67852783 150.66508484 C-185.825806 163.29537745 -190.97938679 175.92307073 -196.14099121 188.54751587 C-198.43203392 194.15335708 -200.71678078 199.76159505 -202.98602295 205.376297 C-203.82216961 207.44318739 -204.66174172 209.50864323 -205.50292969 211.57348633 C-206.47365279 213.95739357 -207.43823159 216.34381562 -208.39550781 218.7331543 C-212.522851 228.81987566 -217.29143696 233.18316905 -226.3125 239.125 C-233.88861782 244.18801844 -241.35390528 249.33206883 -248.60668945 254.85009766 C-252.79546662 258 -252.79546662 258 -255 258 C-255.27239502 258.59458008 -255.54479004 259.18916016 -255.82543945 259.80175781 C-256.97029488 261.94440556 -258.12644698 263.42006637 -259.79296875 265.171875 C-260.33711426 265.74945557 -260.88125977 266.32703613 -261.44189453 266.92211914 C-262.30596924 267.82692017 -262.30596924 267.82692017 -263.1875 268.75 C-264.37706306 270.01360696 -265.56587255 271.27792378 -266.75390625 272.54296875 C-267.32125488 273.14544434 -267.88860352 273.74791992 -268.47314453 274.36865234 C-272.8160471 279.00876666 -276.89530061 283.87105114 -280.99316406 288.72680664 C-282.88457968 290.96702794 -284.77914936 293.20454919 -286.67626953 295.43994141 C-287.88864298 296.8687622 -289.09873448 298.29951844 -290.30859375 299.73046875 C-290.99050781 300.52066406 -291.67242187 301.31085938 -292.375 302.125 C-292.96023438 302.80820312 -293.54546875 303.49140625 -294.1484375 304.1953125 C-298.83854992 308.76668789 -304.80991358 310.51950121 -310.84375 312.71875 C-313.96981497 313.8909367 -313.96981497 313.8909367 -316.5234375 315.52734375 C-319.32536746 317.1934756 -322.01869112 318.07821176 -325.125 319.0625 C-333.64777335 322.03617793 -341.36297889 326.22805915 -349.28027344 330.52636719 C-354.35806223 333.27767178 -359.4572113 335.98765283 -364.5625 338.6875 C-365.56853271 339.22898682 -366.57456543 339.77047363 -367.61108398 340.32836914 C-368.54509033 340.82199951 -369.47909668 341.31562988 -370.44140625 341.82421875 C-371.68966187 342.49070435 -371.68966187 342.49070435 -372.96313477 343.1706543 C-373.63530029 343.44433838 -374.30746582 343.71802246 -375 344 C-375.66 343.67 -376.32 343.34 -377 343 C-376.00363813 341.97561545 -375.00260713 340.95577287 -374 339.9375 C-373.1646875 339.08478516 -373.1646875 339.08478516 -372.3125 338.21484375 C-370.43204083 336.41379587 -368.52276005 334.73231319 -366.54296875 333.04516602 C-361.65085025 328.7730853 -357.07987577 324.19381783 -352.50927734 319.58444214 C-350.9630726 318.02526273 -349.41358104 316.46941379 -347.86328125 314.91430664 C-344.57267017 311.61236864 -341.28603038 308.30649584 -338 305 C-334.18663495 301.16288524 -330.37157851 297.32748325 -326.55224609 293.49630737 C-325.03923948 291.97690534 -323.5293203 290.45448297 -322.01953125 288.93188477 C-317.37481939 284.26299265 -312.66778638 279.74277561 -307.6647644 275.45773315 C-305.5174078 273.5774233 -303.58229376 271.54959574 -301.66015625 269.44140625 C-293.65131021 260.89956158 -286.75413426 254.0242357 -275.80102539 249.64599609 C-268.71246586 246.73039753 -264.61991419 242.05684952 -260 236 C-258.65329753 234.28577639 -257.29898719 232.57750485 -255.9375 230.875 C-255.20789063 229.95460938 -254.47828125 229.03421875 -253.7265625 228.0859375 C-251.69576797 225.67446731 -249.49475323 223.58089675 -247.1484375 221.4765625 C-237.04967032 212.29554943 -230.63708079 203.00920672 -224.9934082 190.6171875 C-220.06488461 180.0360187 -212.88392087 173.411698 -204.15234375 165.92529297 C-199.40636754 161.67996988 -194.98190881 157.08314677 -190.5 152.5625 C-189.47679861 151.5342702 -188.45336267 150.50627374 -187.4296875 149.47851562 C-184.95042001 146.98835662 -182.47432462 144.49507167 -180 142 C-174.96655912 144.75840294 -170.39200648 147.79902341 -165.8125 151.25 C-161.00163254 154.81422947 -156.17799431 158.34890551 -151.25 161.75 C-150.30640625 162.40484375 -149.3628125 163.0596875 -148.390625 163.734375 C-147.60171875 164.15203125 -146.8128125 164.5696875 -146 165 C-141.87586368 163.62528789 -140.85522675 160.84525194 -138.8125 157.25 C-137.99948121 155.85501194 -137.1856673 154.46048701 -136.37109375 153.06640625 C-135.96745605 152.37047363 -135.56381836 151.67454102 -135.14794922 150.95751953 C-133.60946098 148.33404043 -131.99350533 145.76223386 -130.375 143.1875 C-127.61576575 138.73712218 -124.9747768 134.23312202 -122.375 129.6875 C-122.04875641 129.11751785 -121.72251282 128.54753571 -121.38638306 127.96028137 C-119.73503059 125.07354811 -118.09029791 122.1834984 -116.45458984 119.2878418 C-112.03835404 111.54529303 -107.66755862 103.90985174 -100.8125 98.0625 C-100.0390625 97.39734375 -99.265625 96.7321875 -98.46875 96.046875 C-95.93459034 93.94576794 -93.37565619 91.87810234 -90.8125 89.8125 C-85.66334311 85.63965797 -80.81835033 81.20099935 -75.99267578 76.6640625 C-72.94883143 73.80283198 -69.883204 71.00529441 -66.6875 68.3125 C-63.91746579 65.9228744 -61.50783738 63.37898247 -59.1015625 60.625 C-53.22866374 54.04622687 -46.95805316 47.8843542 -40.6875 41.6875 C-38.3759459 39.40270221 -36.06785646 37.11448191 -33.76171875 34.82421875 C-32.9819593 34.05690681 -32.9819593 34.05690681 -32.18644714 33.27409363 C-29.2263951 30.33394783 -26.56464427 27.28771578 -24 24 C-22.3541829 22.306042 -20.68810921 20.65074559 -19 19 C-17.45043411 17.45321297 -15.90242028 15.90487041 -14.35546875 14.35546875 C-9.5703125 9.5703125 -4.78515625 4.78515625 0 0 Z " fill="#2E3E39" transform="translate(600,451)"/>
<path d="M0 0 C233.64 0 467.28 0 708 0 C708 150.81 708 301.62 708 457 C707.34 457 706.68 457 706 457 C704.81420898 455.38623047 704.81420898 455.38623047 703.49609375 453.1171875 C703.0072168 452.28646729 702.51833984 451.45574707 702.01464844 450.59985352 C701.49418945 449.70065186 700.97373047 448.8014502 700.4375 447.875 C699.34940407 446.02631391 698.25955034 444.17866133 697.16796875 442.33203125 C696.62962402 441.42018066 696.0912793 440.50833008 695.53662109 439.56884766 C692.9121775 435.18143178 690.12933374 430.90473504 687.328125 426.62890625 C686.81884752 425.81733394 686.81884752 425.81733394 686.2992816 424.98936623 C685.26924333 423.41224595 684.17358933 421.87801009 683.05646563 420.3613289 C677.06573632 411.70873971 675.86286956 404.53697914 676.03796387 394.08634949 C676.03445646 392.5197081 676.02742643 390.95307137 676.01721191 389.38645935 C675.99939318 385.10720425 676.03119664 380.8295714 676.07141817 376.55052207 C676.10652015 371.85577248 676.09465029 367.16108971 676.08887482 362.4662447 C676.08463291 353.3655772 676.12145898 344.2655446 676.17288545 335.16503995 C676.23062014 324.63165276 676.23685066 314.09864366 676.24316406 303.56506348 C676.28511968 275.77244213 676.39680918 247.97996145 676.5 220.1875 C676.665 158.085625 676.83 95.98375 677 32 C463.82 32 250.64 32 31 32 C31.7116427 149.79798888 31.7116427 149.79798888 32.62158203 267.59448242 C32.70288086 290.46936035 32.70288086 290.46936035 32.71798706 301.20600891 C32.73463901 308.64461334 32.80007363 316.08072867 32.90036011 323.51863098 C33.01630944 332.13118324 33.06673796 340.7413859 33.04200911 349.35472133 C33.03132709 353.74641351 33.04618544 358.13288322 33.14587235 362.52357519 C33.67477407 387.01312713 28.2903672 404.5489977 16.32893554 425.92760381 C12.63934145 432.53179013 9.52691175 439.31902767 6.5 446.25 C5.65651966 448.15116133 4.81282283 450.05222665 3.96875 451.953125 C3.63294922 452.71786133 3.29714844 453.48259766 2.95117188 454.27050781 C2 456 2 456 0 457 C0 306.19 0 155.38 0 0 Z " fill="#2F3F39" transform="translate(261,237)"/>
<path d="M0 0 C22.67262204 -0.5685924 44.16458241 6.49058735 61.61328125 21.15625 C62.72316406 22.04763672 62.72316406 22.04763672 63.85546875 22.95703125 C77.87734824 34.67427657 86.9168794 51.65597364 91.61328125 69.15625 C91.94972656 70.40148437 91.94972656 70.40148437 92.29296875 71.671875 C97.68719614 95.76116446 91.25767659 120.48701921 78.61328125 141.15625 C76.15503746 144.70008765 73.48890483 147.94411728 70.61328125 151.15625 C69.824375 152.05085937 69.03546875 152.94546875 68.22265625 153.8671875 C58.50423695 164.25483926 47.11314812 171.17446522 33.86328125 176.21875 C33.12013672 176.50588867 32.37699219 176.79302734 31.61132812 177.08886719 C24.6755523 179.54339153 16.7986079 181.97945005 9.77685547 178.9206543 C6.85463752 177.07926021 4.14891511 175.09324256 1.42578125 172.96875 C-0.58905796 171.46509233 -2.60468884 169.96249492 -4.62109375 168.4609375 C-6.0896582 167.3467041 -6.0896582 167.3467041 -7.58789062 166.20996094 C-10.03464521 164.41459286 -12.49317828 162.79243046 -15.08984375 161.2265625 C-27.20098163 153.81289529 -33.92322079 143.81380297 -41.52734375 131.99804688 C-44.25905165 127.82301012 -47.1847871 123.80212255 -50.13671875 119.78125 C-51.18463848 118.3406031 -52.2315263 116.899205 -53.27734375 115.45703125 C-53.78716797 114.75400879 -54.29699219 114.05098633 -54.82226562 113.32666016 C-58.50084356 108.22326473 -62.11151307 103.07152366 -65.73046875 97.92578125 C-66.39912964 96.9826709 -66.39912964 96.9826709 -67.08129883 96.02050781 C-67.94911319 94.78119035 -68.8007528 93.53038269 -69.63549805 92.26855469 C-72.3697906 88.21237125 -75.1410643 85.61706877 -79.19921875 82.78125 C-84.08579965 78.85088264 -84.08579965 78.85088264 -85.2734375 76.109375 C-85.41171555 73.57268799 -85.02936971 71.62035739 -84.38671875 69.15625 C-84.10957031 68.05410156 -83.83242188 66.95195312 -83.546875 65.81640625 C-78.92687788 50.1478751 -70.87148505 37.62337457 -59.38671875 26.15625 C-58.80535156 25.50398438 -58.22398437 24.85171875 -57.625 24.1796875 C-45.29945578 10.58122813 -24.09907879 1.42744804 -6.0546875 0.25 C-4.03598455 0.17906461 -2.01780252 0.09309354 0 0 Z " fill="#C7A872" transform="translate(767.38671875,426.84375)"/>
<path d="M0 0 C-0.62283386 5.07849149 -2.2041614 9.54419106 -4.125 14.25 C-4.63039307 15.5033313 -4.63039307 15.5033313 -5.14599609 16.78198242 C-9.38591153 27.15199496 -13.9696254 37.37842438 -18.54345703 47.60449219 C-23.95577317 59.72904258 -28.86649977 72.00028379 -33.61132812 84.40136719 C-35.29663866 88.76871551 -37.01308963 93.12329075 -38.734375 97.4765625 C-39.22423889 98.71548248 -39.22423889 98.71548248 -39.72399902 99.97943115 C-41.07875123 103.40406788 -42.43449323 106.82831209 -43.79052734 110.25244141 C-44.79331167 112.78521787 -45.79513675 115.31837216 -46.796875 117.8515625 C-47.10413513 118.62650055 -47.41139526 119.4014386 -47.72796631 120.19985962 C-48.88136783 123.11729902 -50.00772119 126.02316358 -51 129 C-52.5402832 130.31176758 -52.5402832 130.31176758 -54.55078125 131.64453125 C-55.30270752 132.14992432 -56.05463379 132.65531738 -56.8293457 133.17602539 C-57.64878662 133.71606201 -58.46822754 134.25609863 -59.3125 134.8125 C-61.04243756 135.97280982 -62.77157734 137.13430976 -64.5 138.296875 C-65.40105469 138.90080078 -66.30210937 139.50472656 -67.23046875 140.12695312 C-71.79742031 143.21560372 -76.30413872 146.38920216 -80.8125 149.5625 C-82.44360084 150.71021772 -84.07508936 151.85738475 -85.70703125 153.00390625 C-86.44848389 153.52871582 -87.18993652 154.05352539 -87.95385742 154.59423828 C-89.68767474 155.78542312 -91.48318021 156.88603283 -93.2890625 157.96484375 C-96.64887151 160.48712112 -98.4987953 163.42405983 -100.5625 167 C-101.42892447 168.44264853 -102.29751956 169.88399504 -103.16796875 171.32421875 C-103.62478027 172.08524902 -104.0815918 172.8462793 -104.55224609 173.63037109 C-107.06908285 177.74983442 -109.72720084 181.77646552 -112.375 185.8125 C-115.74014014 190.95165152 -119.07947336 196.1016224 -122.3203125 201.3203125 C-122.85479004 202.17906982 -123.38926758 203.03782715 -123.93994141 203.92260742 C-124.95067823 205.5519658 -125.95592464 207.1847481 -126.95458984 208.8215332 C-127.4130127 209.55976318 -127.87143555 210.29799316 -128.34375 211.05859375 C-128.73755859 211.70111084 -129.13136719 212.34362793 -129.53710938 213.00561523 C-133.03754158 217.77781661 -137.02067917 220.84412937 -142.15625 223.70703125 C-142.73983276 224.03611984 -143.32341553 224.36520844 -143.92468262 224.70426941 C-145.77885858 225.74817715 -147.63896386 226.78088083 -149.5 227.8125 C-163.0632494 235.3880269 -176.13395276 242.86085589 -188 253 C-189.99492042 254.67274335 -191.99483302 256.33955333 -194 258 C-194.886875 258.7425 -195.77375 259.485 -196.6875 260.25 C-199 262 -199 262 -202 263 C-200.70771455 259.00911846 -199.28239122 255.12225759 -197.6796875 251.24609375 C-197.23149658 250.15466064 -196.78330566 249.06322754 -196.3215332 247.9387207 C-195.33865051 245.55972987 -194.3526998 243.18200476 -193.36401367 240.80541992 C-191.08612452 235.28838779 -188.87320043 229.8056405 -187.05859375 224.1171875 C-183.45375927 213.02831611 -179.35941081 205.90168247 -170.10668945 198.49731445 C-168.03385824 196.7470802 -166.42708557 195.31097089 -165 193 C-164.89472579 189.39613671 -165.82083824 186.3797201 -167 183 C-167.28359375 181.98292969 -167.5671875 180.96585938 -167.859375 179.91796875 C-168.15328125 179.01691406 -168.4471875 178.11585938 -168.75 177.1875 C-170.94364736 170.27668612 -172.92731852 163.31335616 -174.89355469 156.3347168 C-175.13750977 155.47273682 -175.38146484 154.61075684 -175.6328125 153.72265625 C-175.84824707 152.95703369 -176.06368164 152.19141113 -176.28564453 151.40258789 C-177.12526414 148.57869981 -178.05642549 145.79067325 -179 143 C-179.22391418 143.549478 -179.44782837 144.09895599 -179.67852783 144.66508484 C-184.825806 157.29537745 -189.97938679 169.92307073 -195.14099121 182.54751587 C-197.43203392 188.15335708 -199.71678078 193.76159505 -201.98602295 199.376297 C-202.82216961 201.44318739 -203.66174172 203.50864323 -204.50292969 205.57348633 C-205.47365279 207.95739357 -206.43823159 210.34381562 -207.39550781 212.7331543 C-211.522851 222.81987566 -216.29143696 227.18316905 -225.3125 233.125 C-232.88861782 238.18801844 -240.35390528 243.33206883 -247.60668945 248.85009766 C-251.79546662 252 -251.79546662 252 -254 252 C-254.27239502 252.59458008 -254.54479004 253.18916016 -254.82543945 253.80175781 C-255.97029488 255.94440556 -257.12644698 257.42006637 -258.79296875 259.171875 C-259.33711426 259.74945557 -259.88125977 260.32703613 -260.44189453 260.92211914 C-261.30596924 261.82692017 -261.30596924 261.82692017 -262.1875 262.75 C-263.37706306 264.01360696 -264.56587255 265.27792378 -265.75390625 266.54296875 C-266.32125488 267.14544434 -266.88860352 267.74791992 -267.47314453 268.36865234 C-271.8160471 273.00876666 -275.89530061 277.87105114 -279.99316406 282.72680664 C-281.88457968 284.96702794 -283.77914936 287.20454919 -285.67626953 289.43994141 C-286.88864298 290.8687622 -288.09873448 292.29951844 -289.30859375 293.73046875 C-289.99050781 294.52066406 -290.67242187 295.31085938 -291.375 296.125 C-291.96023438 296.80820312 -292.54546875 297.49140625 -293.1484375 298.1953125 C-297.83854992 302.76668789 -303.80991358 304.51950121 -309.84375 306.71875 C-312.96981497 307.8909367 -312.96981497 307.8909367 -315.5234375 309.52734375 C-318.32536746 311.1934756 -321.01869112 312.07821176 -324.125 313.0625 C-332.64777335 316.03617793 -340.36297889 320.22805915 -348.28027344 324.52636719 C-353.35806223 327.27767178 -358.4572113 329.98765283 -363.5625 332.6875 C-364.56853271 333.22898682 -365.57456543 333.77047363 -366.61108398 334.32836914 C-367.54509033 334.82199951 -368.47909668 335.31562988 -369.44140625 335.82421875 C-370.68966187 336.49070435 -370.68966187 336.49070435 -371.96313477 337.1706543 C-372.63530029 337.44433838 -373.30746582 337.71802246 -374 338 C-374.66 337.67 -375.32 337.34 -376 337 C-375.00363813 335.97561545 -374.00260713 334.95577287 -373 333.9375 C-372.1646875 333.08478516 -372.1646875 333.08478516 -371.3125 332.21484375 C-369.43204083 330.41379587 -367.52276005 328.73231319 -365.54296875 327.04516602 C-360.65085025 322.7730853 -356.07987577 318.19381783 -351.50927734 313.58444214 C-349.9630726 312.02526273 -348.41358104 310.46941379 -346.86328125 308.91430664 C-343.57267017 305.61236864 -340.28603038 302.30649584 -337 299 C-333.18663495 295.16288524 -329.37157851 291.32748325 -325.55224609 287.49630737 C-324.03923948 285.97690534 -322.5293203 284.45448297 -321.01953125 282.93188477 C-316.37481939 278.26299265 -311.66778638 273.74277561 -306.6647644 269.45773315 C-304.5174078 267.5774233 -302.58229376 265.54959574 -300.66015625 263.44140625 C-292.65131021 254.89956158 -285.75413426 248.0242357 -274.80102539 243.64599609 C-267.71246586 240.73039753 -263.61991419 236.05684952 -259 230 C-257.65329753 228.28577639 -256.29898719 226.57750485 -254.9375 224.875 C-254.20789063 223.95460938 -253.47828125 223.03421875 -252.7265625 222.0859375 C-250.69576797 219.67446731 -248.49475323 217.58089675 -246.1484375 215.4765625 C-236.04967032 206.29554943 -229.63708079 197.00920672 -223.9934082 184.6171875 C-219.06488461 174.0360187 -211.88392087 167.411698 -203.15234375 159.92529297 C-198.40636754 155.67996988 -193.98190881 151.08314677 -189.5 146.5625 C-188.47679861 145.5342702 -187.45336267 144.50627374 -186.4296875 143.47851562 C-183.95042001 140.98835662 -181.47432462 138.49507167 -179 136 C-173.96655912 138.75840294 -169.39200648 141.79902341 -164.8125 145.25 C-160.00163254 148.81422947 -155.17799431 152.34890551 -150.25 155.75 C-149.30640625 156.40484375 -148.3628125 157.0596875 -147.390625 157.734375 C-146.60171875 158.15203125 -145.8128125 158.5696875 -145 159 C-140.87586368 157.62528789 -139.85522675 154.84525194 -137.8125 151.25 C-136.99948121 149.85501194 -136.1856673 148.46048701 -135.37109375 147.06640625 C-134.96745605 146.37047363 -134.56381836 145.67454102 -134.14794922 144.95751953 C-132.60946098 142.33404043 -130.99350533 139.76223386 -129.375 137.1875 C-126.61576575 132.73712218 -123.9747768 128.23312202 -121.375 123.6875 C-121.04875641 123.11751785 -120.72251282 122.54753571 -120.38638306 121.96028137 C-118.73503059 119.07354811 -117.09029791 116.1834984 -115.45458984 113.2878418 C-111.03835404 105.54529303 -106.66755862 97.90985174 -99.8125 92.0625 C-99.0390625 91.39734375 -98.265625 90.7321875 -97.46875 90.046875 C-94.93459034 87.94576794 -92.37565619 85.87810234 -89.8125 83.8125 C-84.66334311 79.63965797 -79.81835033 75.20099935 -74.99267578 70.6640625 C-71.94883143 67.80283198 -68.883204 65.00529441 -65.6875 62.3125 C-62.91746579 59.9228744 -60.50783738 57.37898247 -58.1015625 54.625 C-52.22866374 48.04622687 -45.95805316 41.8843542 -39.6875 35.6875 C-37.3759459 33.40270221 -35.06785646 31.11448191 -32.76171875 28.82421875 C-31.9819593 28.05690681 -31.9819593 28.05690681 -31.18644714 27.27409363 C-28.92177575 25.02465207 -26.82456267 22.77600644 -24.85473633 20.26098633 C-22.72960148 17.67037505 -20.36179428 16.46386265 -17.49609375 14.80078125 C-13.34562404 11.80646742 -9.91507185 8.06663392 -6.39282227 4.36914062 C-2.1936066 0 -2.1936066 0 0 0 Z " fill="#2E3E39" transform="translate(599,457)"/>
<path d="M0 0 C6.65186252 6.39386448 11.41217293 12.92868118 11.875 22.3125 C11.78794364 32.06281233 7.35824403 40.68711126 0.8125 47.8125 C-20.86840398 67.32531358 -51.35598578 74.67583337 -79.0078125 80.90136719 C-82.56120628 81.71413972 -86.09275542 82.60011864 -89.625 83.5 C-89.0165625 83.80550781 -88.408125 84.11101562 -87.78125 84.42578125 C-78.88216953 89.07162473 -70.81236241 94.72752491 -62.625 100.5 C-32.14363766 121.982165 -1.37590441 143.07664665 32.25 159.375 C33.1766748 159.82762207 34.10334961 160.28024414 35.05810547 160.74658203 C40.75310657 163.45892122 46.4621148 165.61805903 52.46948242 167.53564453 C55.200543 168.44209687 57.83780596 169.46318263 60.49609375 170.5625 C65.3930583 172.55911227 70.33822521 174.1079103 75.4375 175.5 C76.36127441 175.75346191 77.28504883 176.00692383 78.23681641 176.26806641 C89.45722902 179.21942931 100.89696388 180.89566722 112.375 182.5 C112.375 183.16 112.375 183.82 112.375 184.5 C99.44200151 186.21830165 86.72923969 186.86776474 73.6875 186.8125 C72.76812653 186.81034485 71.84875305 186.8081897 70.90151978 186.80596924 C41.68628866 186.69628175 15.98470112 181.76868403 -10.625 169.5 C-11.30868652 169.18836914 -11.99237305 168.87673828 -12.69677734 168.55566406 C-29.51384131 160.80529808 -44.82954043 150.72976998 -59.00390625 138.85351562 C-61.35273737 136.89238313 -63.74250918 134.98250731 -66.125 133.0625 C-70.40189951 129.55519008 -74.58155629 125.94691591 -78.75 122.3125 C-96.38466621 106.98154275 -113.45395255 93.56263836 -134.625 83.5 C-135.69878906 82.95601562 -136.77257812 82.41203125 -137.87890625 81.8515625 C-140.73563717 80.445547 -143.58654644 79.44047372 -146.625 78.5 C-143.20026661 76.21684441 -140.15342007 75.6802992 -136.1875 75 C-135.53845703 74.88269531 -134.88941406 74.76539063 -134.22070312 74.64453125 C-131.0960241 74.08515656 -127.96853231 73.55443643 -124.83325195 73.05761719 C-117.70102883 71.91664739 -110.70393499 70.46102537 -103.6875 68.75 C-102.60629883 68.48687012 -101.52509766 68.22374023 -100.41113281 67.95263672 C-55.72484191 58.41206112 -55.72484191 58.41206112 -20.625 32.25 C-17.91392939 27.54328018 -16.60667512 22.93106603 -17.625 17.5 C-21.88764277 9.47620185 -29.02329571 4.43354767 -37 0.5625 C-37.70350586 0.21968994 -38.40701172 -0.12312012 -39.13183594 -0.47631836 C-61.33377853 -11.09926925 -85.51614713 -16.3061134 -109.73779297 -20.04394531 C-112.65578914 -20.50486336 -115.56326396 -21.0112307 -118.47265625 -21.5234375 C-151.39471299 -27.11955866 -184.78516153 -27.77985045 -218.09923935 -27.81007385 C-220.32858929 -27.81245052 -222.55791812 -27.81775804 -224.78726196 -27.82336426 C-254.55746982 -27.87797557 -284.04910293 -26.27683351 -313.625 -22.75 C-314.72556732 -22.62127502 -315.82613464 -22.49255005 -316.96005249 -22.35992432 C-339.66957054 -19.69062124 -362.179587 -16.44423156 -384.26586914 -10.40576172 C-388.1388304 -9.3614499 -392.01881546 -8.4795418 -395.9375 -7.625 C-402.73035763 -6.08693503 -409.28831992 -4.08813242 -415.85864258 -1.78173828 C-420.304016 -0.22915143 -424.76749402 1.10631837 -429.30859375 2.35546875 C-436.56344322 4.40438877 -443.50807043 7.00713834 -450.5 9.8125 C-451.71220215 10.29235352 -452.9244043 10.77220703 -454.17333984 11.26660156 C-461.58863377 14.22083089 -468.95615007 17.26487242 -476.18310547 20.6574707 C-477.6395669 21.32694994 -479.12966268 21.92254985 -480.625 22.5 C-481.285 22.17 -481.945 21.84 -482.625 21.5 C-418.81972072 -40.40322489 -302.77913046 -45.74935432 0 0 Z " fill="#31413C" transform="translate(685.625,816.5)"/>
<path d="M0 0 C0.33 0 0.66 0 1 0 C1.21615967 0.98057373 1.43231934 1.96114746 1.6550293 2.97143555 C2.6636701 7.54394052 3.67539345 12.1157611 4.6875 16.6875 C4.86885498 17.50767609 5.05020996 18.32785217 5.23706055 19.17288208 C7.58512093 29.78331671 9.96223811 40.38235645 12.62768555 50.91870117 C13.55829053 54.68373494 14.24730905 58.11261083 14 62 C14.88945313 62.39638672 14.88945313 62.39638672 15.796875 62.80078125 C18.08029054 64.04370425 19.47426723 65.30401646 21.25 67.1875 C23.6683612 69.67759225 26.12425585 72.04187699 28.75 74.3125 C29.38107666 74.86333252 30.01215332 75.41416504 30.66235352 75.98168945 C32.278278 77.37686937 33.91372013 78.74964547 35.56420898 80.10375977 C42.71682479 86.19630459 47.05407399 92.30805424 51.3125 100.625 C52.25492693 102.40522252 53.20508877 104.18117533 54.15568542 105.95704651 C54.8019029 107.16538417 55.44563318 108.37505527 56.08686829 109.58604431 C60.01021377 116.97283479 64.30912712 124.1360152 68.60864258 131.30908203 C71.25857047 135.78314815 73.66520156 139.92436515 75 145 C72.10143745 143.64881155 69.67656275 142.10301359 67.1640625 140.12890625 C66.43662842 139.56010742 65.70919434 138.99130859 64.9597168 138.40527344 C64.18926025 137.7971582 63.41880371 137.18904297 62.625 136.5625 C61.82425049 135.93504883 61.02350098 135.30759766 60.19848633 134.66113281 C57.79621974 132.77758362 55.39765468 130.88941479 53 129 C51.72017692 127.99333086 50.4402398 126.98680666 49.16015625 125.98046875 C47.43185475 124.62174868 45.70374429 123.26279699 43.97680664 121.90234375 C40.19444904 118.92591885 36.38522512 115.98682075 32.5625 113.0625 C27.20066187 108.95731713 21.9183737 104.75887754 16.65429688 100.52929688 C12.47999502 97.17701138 8.28092795 93.8590278 4.0625 90.5625 C-0.9717795 86.62788992 -5.93333184 82.61261462 -10.875 78.5625 C-18.7349927 72.12817465 -26.82822579 66.03103017 -35 60 C-34.39982174 56.88104084 -33.44093797 54.96491234 -31.48046875 52.48046875 C-30.9587207 51.79960205 -30.43697266 51.11873535 -29.89941406 50.41723633 C-29.33448242 49.68142334 -28.76955078 48.94561035 -28.1875 48.1875 C-21.65524373 39.43952412 -16.71495935 30.2099331 -11.80859375 20.484375 C-9.32147644 15.56322171 -6.65809017 10.78453844 -3.8125 6.0625 C-3.25030762 5.12241089 -3.25030762 5.12241089 -2.67675781 4.16333008 C-1.81702223 2.75517754 -0.91367478 1.37376754 0 0 Z " fill="#F7F2EA" transform="translate(862,644)"/>
<path d="M0 0 C0 4.75056883 -3.09454682 7.08694675 -6.3269043 10.34643555 C-7.20902588 11.22211182 -8.09114746 12.09778809 -9 13 C-9.82346924 13.82346924 -10.64693848 14.64693848 -11.49536133 15.49536133 C-17.66357422 21.66357422 -23.83178711 27.83178711 -30 34 C-30.66 33.34 -31.32 32.68 -32 32 C-21.44 21.44 -10.88 10.88 0 0 Z " fill="#384842" transform="translate(278,740)"/>
<path d="M0 0 C0.99 0.33 1.98 0.66 3 1 C2.01 1.495 2.01 1.495 1 2 C0.34227572 5.02934491 0.34227572 5.02934491 0 8 C-0.33 7.34 -0.66 6.68 -1 6 C-6.96348734 11.05352742 -12.53105379 16.41711741 -18 22 C-18.99 21.67 -19.98 21.34 -21 21 C-14.07 14.07 -7.14 7.14 0 0 Z " fill="#3F4F4A" transform="translate(600,451)"/>
<path d="M0 0 C5.61 0.66 11.22 1.32 17 2 C17 2.66 17 3.32 17 4 C10.30324864 5.03026944 3.7685324 5.10152799 -3 5 C-2.01 3.35 -1.02 1.7 0 0 Z " fill="#3B4844" transform="translate(781,997)"/>
<path d="M0 0 C0.66 0.66 1.32 1.32 2 2 C1.57589844 2.4125 1.15179687 2.825 0.71484375 3.25 C-3.20551025 7.11004086 -6.88081758 11.08957044 -10.421875 15.30078125 C-12 17 -12 17 -15 19 C-15.99 18.67 -16.98 18.34 -18 18 C-12.06 12.06 -6.12 6.12 0 0 Z " fill="#374741" transform="translate(557,495)"/>
<path d="M0 0 C0.33 0.66 0.66 1.32 1 2 C1.58265625 2.10183594 2.1653125 2.20367188 2.765625 2.30859375 C6.07210668 3.33175329 7.51765169 5.46903652 9.75 8.0625 C10.94882812 9.44115234 10.94882812 9.44115234 12.171875 10.84765625 C12.77515625 11.55792969 13.3784375 12.26820313 14 13 C13.67 13.66 13.34 14.32 13 15 C11.24972675 13.72954304 9.49979256 12.45861894 7.75 11.1875 C6.77546875 10.47980469 5.8009375 9.77210938 4.796875 9.04296875 C3.87390625 8.36878906 2.9509375 7.69460938 2 7 C1.22140625 6.45988281 0.4428125 5.91976562 -0.359375 5.36328125 C-1.17148437 4.68845703 -1.17148437 4.68845703 -2 4 C-2 3.34 -2 2.68 -2 2 C-1.34 2 -0.68 2 0 2 C0 1.34 0 0.68 0 0 Z " fill="#F1F0ED" transform="translate(697,670)"/>
<path d="M0 0 C0.33 0.99 0.66 1.98 1 3 C-1.82303736 4.41793467 -4.64562529 5.83362706 -7.5 7.1875 C-8.2528125 7.55230469 -9.005625 7.91710937 -9.78125 8.29296875 C-12 9 -12 9 -16 8 C-10.72 5.36 -5.44 2.72 0 0 Z " fill="#E8E8E4" transform="translate(254,779)"/>
<path d="M0 0 C1.65 0.99 3.3 1.98 5 3 C4.43628586 6.26954202 3.50037734 7.82575883 1 10 C0.731875 9.401875 0.46375 8.80375 0.1875 8.1875 C-0.98493467 6.02775192 -2.19369282 4.64209744 -4 3 C-2.68 2.01 -1.36 1.02 0 0 Z " fill="#3B4A45" transform="translate(862,639)"/>
<path d="M0 0 C0.66 0.66 1.32 1.32 2 2 C1.6370951 5.50808074 -0.19516196 8.04006562 -2 11 C-2.69822617 12.65369357 -3.37498605 14.31727014 -4 16 C-4.66 16 -5.32 16 -6 16 C-4.43551329 10.3856009 -2.83604813 5.13189662 0 0 Z " fill="#E0E0DB" transform="translate(600,457)"/>
<path d="M0 0 C-2.39409047 2.39409047 -4.07067225 2.78821084 -7.3125 3.6875 C-8.25738281 3.95949219 -9.20226562 4.23148438 -10.17578125 4.51171875 C-13.13765347 5.02379901 -15.1213481 4.78127347 -18 4 C-12.20906558 0.75707672 -6.59189297 -0.26905686 0 0 Z " fill="#45554F" transform="translate(609,880)"/>
<path d="M0 0 C0.845625 0.309375 1.69125 0.61875 2.5625 0.9375 C-0.89606848 3.88745547 -4.23771485 6.16425738 -8.4375 7.9375 C-9.0975 7.6075 -9.7575 7.2775 -10.4375 6.9375 C-4.52065098 -0.08219365 -4.52065098 -0.08219365 0 0 Z " fill="#525E58" transform="translate(233.4375,787.0625)"/>
<path d="M0 0 C0.99 0.66 1.98 1.32 3 2 C0.54385965 6.78947368 0.54385965 6.78947368 -1.9375 7.75 C-2.618125 7.8325 -3.29875 7.915 -4 8 C-5.33574821 8.32352067 -6.66949064 8.65556751 -8 9 C-7.04270084 7.87411986 -6.08412105 6.7493285 -5.125 5.625 C-4.59132813 4.99851562 -4.05765625 4.37203125 -3.5078125 3.7265625 C-2.38567993 2.44163349 -1.20628025 1.20628025 0 0 Z " fill="#35443F" transform="translate(420,593)"/>
<path d="M0 0 C0.66 0 1.32 0 2 0 C0.63629701 2.99220268 -0.94908083 5.29026529 -3.125 7.75 C-3.93324219 8.67039062 -3.93324219 8.67039062 -4.7578125 9.609375 C-5.16773438 10.06828125 -5.57765625 10.5271875 -6 11 C-6.99 10.67 -7.98 10.34 -9 10 C-7.5484451 8.32742645 -6.08855591 6.66208242 -4.625 5 C-3.81289063 4.071875 -3.00078125 3.14375 -2.1640625 2.1875 C-1.44992187 1.465625 -0.73578125 0.74375 0 0 Z " fill="#374842" transform="translate(352,673)"/>
<path d="M0 0 C1.125 1.75 1.125 1.75 2 4 C1.125 6.25 1.125 6.25 0 8 C-0.66 8 -1.32 8 -2 8 C-2.33 9.65 -2.66 11.3 -3 13 C-3.66 13 -4.32 13 -5 13 C-4.54554036 11.58208592 -4.08625056 10.16571954 -3.625 8.75 C-3.24214844 7.56664062 -3.24214844 7.56664062 -2.8515625 6.359375 C-2.04826333 4.13372042 -1.10288338 2.09068328 0 0 Z " fill="#E1E0DA" transform="translate(582,499)"/>
<path d="M0 0 C0.99 0.33 1.98 0.66 3 1 C0.42215154 3.64752004 -1.91648098 5.94432065 -5 8 C-5.99 7.67 -6.98 7.34 -8 7 C-6.74057614 5.80040625 -5.46704714 4.61560557 -4.1875 3.4375 C-3.12595703 2.44556641 -3.12595703 2.44556641 -2.04296875 1.43359375 C-1.36878906 0.96050781 -0.69460938 0.48742187 0 0 Z " fill="#384842" transform="translate(520,531)"/>
<path d="M0 0 C0 0.66 0 1.32 0 2 C-3.63423209 4.32590854 -6.77088331 4.16265833 -11 4 C-7.63661956 0.63661956 -4.71164284 0 0 0 Z " fill="#E2E1DA" transform="translate(299,760)"/>
<path d="M0 0 C0.66 0.99 1.32 1.98 2 3 C-1.61328125 7.6875 -1.61328125 7.6875 -3 9 C-3.99 9 -4.98 9 -6 9 C-4.47291037 5.56404834 -2.40072955 2.88087546 0 0 Z " fill="#E2E2DC" transform="translate(322,735)"/>
<path d="M0 0 C1.125 3.75 1.125 3.75 0 6 C0.66 6.33 1.32 6.66 2 7 C0.71034824 8.37562854 -0.62689293 9.70766393 -2 11 C-2.66 11 -3.32 11 -4 11 C-2.7874262 7.27566618 -1.49140021 3.62197194 0 0 Z " fill="#52605A" transform="translate(401,709)"/>
<path d="M0 0 C0.33 0.99 0.66 1.98 1 3 C0.00390625 4.82421875 0.00390625 4.82421875 -1.4375 6.6875 C-1.91058594 7.31011719 -2.38367188 7.93273437 -2.87109375 8.57421875 C-3.24363281 9.04472656 -3.61617188 9.51523437 -4 10 C-4.99 9.34 -5.98 8.68 -7 8 C-4.69 5.36 -2.38 2.72 0 0 Z " fill="#E4E4DF" transform="translate(330,726)"/>
<path d="M0 0 C0 3.58912412 -0.66436554 4.10857029 -3 6.6875 C-3.556875 7.31011719 -4.11375 7.93273437 -4.6875 8.57421875 C-5.120625 9.04472656 -5.55375 9.51523437 -6 10 C-6.99 9.67 -7.98 9.34 -9 9 C-6.03 6.03 -3.06 3.06 0 0 Z " fill="#47554F" transform="translate(548,504)"/>
<path d="M0 0 C3.96 0.33 7.92 0.66 12 1 C12 1.33 12 1.66 12 2 C7.05 2.33 2.1 2.66 -3 3 C-2.01 2.67 -1.02 2.34 0 2 C0 1.34 0 0.68 0 0 Z " fill="#67706C" transform="translate(376,790)"/>
<path d="M0 0 C2.15377564 2.62198774 3.40072174 4.64404172 4 8 C1.11562221 6.70700306 -0.87219421 5.34058637 -3 3 C-2.01 3 -1.02 3 0 3 C0 2.01 0 1.02 0 0 Z " fill="#D5D6D3" transform="translate(933,781)"/>
<path d="M0 0 C0.66 0.99 1.32 1.98 2 3 C1.34 3 0.68 3 0 3 C-0.103125 3.598125 -0.20625 4.19625 -0.3125 4.8125 C-1.08876455 7.28243264 -2.07088921 8.32251235 -4 10 C-4.33 9.34 -4.66 8.68 -5 8 C-4.00390625 6.0546875 -4.00390625 6.0546875 -2.5625 3.875 C-2.08941406 3.15054688 -1.61632812 2.42609375 -1.12890625 1.6796875 C-0.75636719 1.12539063 -0.38382813 0.57109375 0 0 Z " fill="#384843" transform="translate(533,702)"/>
<path d="M0 0 C1.65 0.33 3.3 0.66 5 1 C2.3144406 3.6855594 -0.37621328 4.06049974 -4 5 C-2.68 3.35 -1.36 1.7 0 0 Z " fill="#44544F" transform="translate(207,834)"/>
<path d="M0 0 C-0.33 0.99 -0.66 1.98 -1 3 C-4.375 3.625 -4.375 3.625 -8 4 C-8.66 3.34 -9.32 2.68 -10 2 C-3.375 0 -3.375 0 0 0 Z " fill="#495A54" transform="translate(299,791)"/>
<path d="M0 0 C0.66 0.99 1.32 1.98 2 3 C0.625 6.6875 0.625 6.6875 -1 10 C-1.66 10 -2.32 10 -3 10 C-2.01 6.7 -1.02 3.4 0 0 Z " fill="#DFE0D9" transform="translate(561,550)"/>
<path d="M0 0 C0.66 0.33 1.32 0.66 2 1 C1.25 3.4375 1.25 3.4375 0 6 C-2.125 6.8125 -2.125 6.8125 -4 7 C-2.68 4.69 -1.36 2.38 0 0 Z " fill="#3D4C47" transform="translate(519,723)"/>
<path d="M0 0 C3.79588866 0.54226981 5.47211993 2.20127563 8 5 C7.67 5.66 7.34 6.32 7 7 C5.82780457 6.21654285 4.66236332 5.42297164 3.5 4.625 C2.8503125 4.18414063 2.200625 3.74328125 1.53125 3.2890625 C1.0259375 2.86367188 0.520625 2.43828125 0 2 C0 1.34 0 0.68 0 0 Z " fill="#CDCECB" transform="translate(703,678)"/>
<path d="M0 0 C4.875 4.75 4.875 4.75 6 7 C5.34 7.66 4.68 8.32 4 9 C0 2.25 0 2.25 0 0 Z " fill="#35453F" transform="translate(706,554)"/>
<path d="M0 0 C7.50769231 -0.36923077 7.50769231 -0.36923077 10 1.5 C10.495 2.2425 10.495 2.2425 11 3 C9.741875 2.87625 8.48375 2.7525 7.1875 2.625 C6.12595703 2.52058594 6.12595703 2.52058594 5.04296875 2.4140625 C3 2 3 2 0 0 Z " fill="#55615C" transform="translate(697,994)"/>
<path d="M0 0 C2.97 0 5.94 0 9 0 C6 3 6 3 3.3125 3.1875 C2.1678125 3.0946875 2.1678125 3.0946875 1 3 C0.67 2.01 0.34 1.02 0 0 Z " fill="#D5D6D3" transform="translate(537,791)"/>
<path d="M0 0 C0.33 1.32 0.66 2.64 1 4 C-0.65 5.32 -2.3 6.64 -4 8 C-4.66 7.67 -5.32 7.34 -6 7 C-4.02 4.69 -2.04 2.38 0 0 Z " fill="#E2E3E0" transform="translate(337,718)"/>
<path d="M0 0 C0.66 0.99 1.32 1.98 2 3 C1.01 4.98 0.02 6.96 -1 9 C-1.99 8.67 -2.98 8.34 -4 8 C-2.68 5.36 -1.36 2.72 0 0 Z " fill="#E3E4E1" transform="translate(265,686)"/>
<path d="M0 0 C0.33 0.66 0.66 1.32 1 2 C0.67 2.99 0.34 3.98 0 5 C-2.5625 6.1875 -2.5625 6.1875 -5 7 C-3.75023244 3.34683329 -3.32901247 2.21934164 0 0 Z " fill="#E5E5E1" transform="translate(505,615)"/>
</svg>
