<?xml version="1.0" encoding="UTF-8"?>
<svg version="1.1" xmlns="http://www.w3.org/2000/svg" width="1126" height="1078">
<path d="M0 0 C371.58 0 743.16 0 1126 0 C1126 355.74 1126 711.48 1126 1078 C754.42 1078 382.84 1078 0 1078 C0 722.26 0 366.52 0 0 Z " fill="#FCF7F0" transform="translate(0,0)"/>
<path d="M0 0 C0.57202148 0.24363281 1.14404297 0.48726563 1.73339844 0.73828125 C1.73339844 1.39828125 1.73339844 2.05828125 1.73339844 2.73828125 C2.74466797 3.02638672 2.74466797 3.02638672 3.77636719 3.3203125 C7.9177777 5.30622005 10.77243881 8.24757342 14.04589844 11.42578125 C15.39143019 12.70789489 16.73777491 13.98915595 18.08496094 15.26953125 C18.72208008 15.87796875 19.35919922 16.48640625 20.015625 17.11328125 C22.5153088 19.47796223 25.10642715 21.72487458 27.71386719 23.96875 C30.42826563 26.34713007 33.07893196 28.7935716 35.73339844 31.23828125 C40.34149889 35.4756559 44.98137608 39.66267288 49.73339844 43.73828125 C51.16232422 44.96804688 51.16232422 44.96804688 52.62011719 46.22265625 C58.20674932 51.00444916 63.86228753 55.66583359 69.67089844 60.17578125 C75.14733639 64.42854067 80.44840184 68.84733761 85.68310547 73.39379883 C89.23664829 76.47644457 92.85550395 79.44386054 96.54589844 82.36328125 C106.66546033 90.6536512 113.82652759 100.82748672 121.18945312 111.50488281 C123.65982007 115.07839906 126.16475583 118.62730458 128.67089844 122.17578125 C129.16452881 122.87606445 129.65815918 123.57634766 130.16674805 124.29785156 C134.30501689 130.15855674 138.50575402 135.97283257 142.72607422 141.7746582 C145.6652663 145.8282172 148.55367429 149.90980704 151.38574219 154.0390625 C152.30250732 155.37070435 152.30250732 155.37070435 153.23779297 156.72924805 C154.40358893 158.42757004 155.56265204 160.13054307 156.71337891 161.83911133 C163.19776986 171.27104083 170.71026257 177.78178645 180.23339844 184.05078125 C182.19971134 185.36824027 184.16585623 186.68595007 186.13183594 188.00390625 C187.08928711 188.64134766 188.04673828 189.27878906 189.03320312 189.93554688 C194.61130581 193.65966173 200.12128791 197.48216387 205.63623047 201.29882812 C207.95909951 202.89319784 210.29726091 204.46378383 212.63574219 206.03515625 C226.73871605 215.59263212 238.99417752 225.74681804 249.58886719 239.15234375 C257.73225 248.97186911 269.96192534 258.92137923 282.73339844 261.73828125 C282.73339844 262.39828125 282.73339844 263.05828125 282.73339844 263.73828125 C287.15155598 265.15209166 291.7663785 265.67495741 296.03027344 263.64453125 C299.61053539 261.11972224 302.50827792 258.13091712 305.54589844 254.98828125 C310.43706263 250.01113956 315.36649454 245.20654078 320.73339844 240.73828125 C321.59578125 239.98417969 321.59578125 239.98417969 322.47558594 239.21484375 C326.48995921 235.73828125 326.48995921 235.73828125 328.73339844 235.73828125 C328.73339844 236.39828125 328.73339844 237.05828125 328.73339844 237.73828125 C329.80654297 238.05925781 329.80654297 238.05925781 330.90136719 238.38671875 C334.42787728 240.06971529 336.53672649 242.46376488 339.04589844 245.36328125 C344.49443668 251.47256452 350.19433242 257.27240301 356.03735352 263.00439453 C359.90114537 266.81893194 363.55223146 270.74316805 367.09643555 274.85620117 C368.99641702 277.04068397 370.96724047 279.14661417 372.95458984 281.2512207 C378.04742064 286.64607851 382.76431394 292.22631999 387.35839844 298.05078125 C394.67682076 307.23197665 402.95380871 313.25505895 412.72167969 319.68359375 C425.05927245 328.10068038 434.3260223 338.6976175 443.64355469 350.2421875 C445.97638779 353.02850592 448.46106835 355.55713294 451.06933594 358.08203125 C453.41957423 360.42123556 455.55348892 362.92712495 457.71777344 365.4375 C460.17820073 368.246011 462.70313044 370.99291696 465.23339844 373.73828125 C468.25280598 377.0166979 471.25542347 380.30409505 474.17089844 383.67578125 C481.79586283 392.44722 489.7450827 400.89386172 498.06542969 409.0078125 C500.04045842 411.02910838 501.86382149 413.04284153 503.68920898 415.18969727 C508.5737654 420.79002163 513.85101845 426.00023668 519.10839844 431.24609375 C520.20278227 432.34115297 521.29701778 433.43636046 522.39111328 434.53170776 C524.67220905 436.81426883 526.95508035 439.09503465 529.23925781 441.37451172 C532.15082444 444.28037498 535.05786813 447.19071508 537.96359253 450.1024189 C540.2181354 452.36059325 542.47507673 454.61635839 544.73272705 456.87142563 C545.80504512 457.94308192 546.87663562 459.01546679 547.94744873 460.08862686 C554.69028154 466.88253652 554.69028154 466.88253652 561.88183594 473.19091797 C564.73247234 475.73745395 565.12232603 476.24252283 565.73339844 479.73828125 C528.87668292 498.85293647 490.93115175 509.00176949 449.73339844 513.73828125 C449.06654022 513.82530807 448.39968201 513.9123349 447.71261597 514.0019989 C439.39297316 514.98652422 431.05802813 514.90238159 422.69433594 514.90625 C421.04301933 514.90947216 419.391703 514.91283692 417.74038696 514.91633606 C414.28932027 514.92229663 410.8382785 514.92417923 407.38720703 514.92358398 C403.01036644 514.92348274 398.63368943 514.93710995 394.25688744 514.95435619 C390.84721168 514.96559203 387.43757397 514.96749965 384.02788162 514.96697426 C382.41668766 514.96813798 380.80549217 514.97246679 379.19431686 514.98030663 C364.70259429 515.04420572 350.81673304 513.70345112 336.67089844 510.36328125 C328.84573259 508.57865167 321.0312569 507.07842354 313.10839844 505.80078125 C302.94007763 504.12083523 293.22324655 501.53216439 283.37451172 498.52929688 C280.6263397 497.70621707 277.86872137 496.92749523 275.10449219 496.16015625 C274.1739502 495.90089355 273.2434082 495.64163086 272.28466797 495.37451172 C270.52738286 494.88608107 268.76930802 494.40047783 267.01025391 493.91845703 C261.87343488 492.47292518 256.97330977 490.71802822 252.05200195 488.65258789 C249.67933025 487.71696027 247.31189589 486.9946629 244.85839844 486.30078125 C241.20937898 485.24530308 237.76081613 483.97385008 234.26464844 482.48828125 C227.56693948 479.66481776 220.84088558 476.91512845 214.10839844 474.17578125 C212.95855469 473.70720703 211.80871094 473.23863281 210.62402344 472.75585938 C204.69872204 470.34322242 198.76712649 467.9477758 192.82519531 465.57641602 C190.30676725 464.56733997 187.79898461 463.53481338 185.29589844 462.48828125 C184.29945313 462.07191406 183.30300781 461.65554688 182.27636719 461.2265625 C179.54867343 460.08075068 176.82223185 458.93213692 174.09667969 457.78125 C163.19679974 453.16525032 163.19679974 453.16525032 152.22558594 448.72265625 C149.6522641 447.70623446 147.08720063 446.67006966 144.52172852 445.6340332 C136.75866078 442.50681554 128.94249891 439.53653816 121.09765625 436.62158203 C118.46005714 435.63615931 115.82705519 434.63901035 113.19433594 433.640625 C102.93201589 429.75517038 92.6481774 425.94064287 82.29589844 422.30078125 C81.36769287 421.97094238 80.4394873 421.64110352 79.4831543 421.30126953 C74.62906946 419.61154807 69.83661569 418.21449172 64.80395508 417.17016602 C56.54610565 415.44771163 48.46132464 412.99866806 40.46777344 410.33203125 C31.1560762 407.34072637 21.67042785 405.69108231 12.04589844 404.05078125 C9.4935597 403.60980632 6.94186609 403.16569791 4.39115906 402.71537781 C2.82285114 402.43903998 1.25356135 402.16819584 -0.31681824 401.90388489 C-3.2135831 401.39768111 -5.91863147 400.88382084 -8.63903809 399.7460022 C-11.50355712 398.64740425 -14.06803932 398.21122564 -17.10961914 397.82446289 C-18.26836548 397.67404037 -19.42711182 397.52361786 -20.62097168 397.36863708 C-21.87172485 397.21347122 -23.12247803 397.05830536 -24.41113281 396.8984375 C-26.36931946 396.64822594 -26.36931946 396.64822594 -28.36706543 396.39295959 C-31.87878116 395.94519001 -35.39159344 395.50670487 -38.90481949 395.070961 C-41.08051994 394.800605 -43.25591847 394.5279336 -45.4312439 394.25457764 C-65.67962832 391.71248867 -85.91623666 389.31598954 -106.26660156 387.73828125 C-107.51747559 387.63821777 -108.76834961 387.5381543 -110.05712891 387.43505859 C-117.45842344 386.843216 -124.86105201 386.27425982 -132.26660156 385.73828125 C-130.99274612 381.41604539 -129.38216711 378.06814559 -126.82910156 374.36328125 C-126.12398438 373.33074219 -125.41886719 372.29820312 -124.69238281 371.234375 C-123.88462158 370.06843321 -123.07597141 368.90310695 -122.26660156 367.73828125 C-120.83284351 365.66875739 -119.40011424 363.59854194 -117.96948242 361.52685547 C-117.02447636 360.16024109 -116.07623902 358.79585356 -115.12426758 357.43408203 C-113.03883463 354.42866093 -111.05509495 351.43387054 -109.28613281 348.23046875 C-106.70138044 343.59634899 -103.44945284 339.47254204 -100.24511719 335.25585938 C-97.4792157 331.56164983 -95.1983062 327.95941361 -93.26660156 323.73828125 C-92.60660156 323.73828125 -91.94660156 323.73828125 -91.26660156 323.73828125 C-91.03328125 323.04992187 -90.79996094 322.3615625 -90.55957031 321.65234375 C-88.99531062 318.12685213 -86.86568629 315.19099962 -84.57910156 312.11328125 C-80.80968662 306.96891505 -77.33210355 301.7623278 -74.12988281 296.23828125 C-68.54775989 288.74864043 -60.54419928 284.93178869 -52.45410156 280.61328125 C-36.41207514 271.90448205 -21.56093634 262.08440948 -7.26660156 250.73828125 C-6.16340591 249.87896029 -5.05921689 249.02091328 -3.95410156 248.1640625 C3.48855626 242.37946463 10.79443608 236.43981221 18.04882812 230.42089844 C18.73106445 229.85532227 19.41330078 229.28974609 20.11621094 228.70703125 C20.71836426 228.20623047 21.32051758 227.70542969 21.94091797 227.18945312 C22.53243652 226.71056641 23.12395508 226.23167969 23.73339844 225.73828125 C24.41023682 225.18084229 25.0870752 224.62340332 25.78442383 224.04907227 C27.73339844 222.73828125 27.73339844 222.73828125 30.53417969 222.796875 C34.37448109 223.92692706 37.55352732 225.69573355 40.92089844 227.80078125 C41.51708984 228.15849609 42.11328125 228.51621094 42.72753906 228.88476562 C46.40851915 231.13661389 49.89564873 233.5749073 53.35839844 236.1484375 C63.42852044 243.54404873 74.02859835 250.19882054 84.48266602 257.03320312 C112.79353 275.55481633 112.79353 275.55481633 125.29589844 285.67578125 C128.96787505 288.64112318 132.61142869 291.41247709 136.73339844 293.73828125 C135.38966705 289.83112382 133.69484269 287.22552876 130.92089844 284.17578125 C130.25445313 283.43199219 129.58800781 282.68820312 128.90136719 281.921875 C126.75413823 279.67239025 126.75413823 279.67239025 124.18652344 277.72265625 C121.81451571 275.80389841 120.14524981 273.96390717 118.29589844 271.55078125 C114.53636801 266.73744305 110.68645514 262.0089037 106.79589844 257.30078125 C105.57444081 255.82039786 104.35308504 254.33993042 103.13183594 252.859375 C102.25736816 251.79952393 102.25736816 251.79952393 101.36523438 250.71826172 C97.80818244 246.40232946 94.27172605 242.0695674 90.73339844 237.73828125 C89.23354148 235.90483089 87.73353904 234.07149954 86.23339844 232.23828125 C85.11191406 230.86736328 85.11191406 230.86736328 83.96777344 229.46875 C82.52042792 227.7000533 81.07254543 225.93179582 79.62402344 224.1640625 C76.29408925 220.09886913 72.96787013 216.03098686 69.66308594 211.9453125 C64.05013848 205.00960054 58.40144211 198.11410192 52.61669922 191.32080078 C49.78333402 187.99053558 46.99339046 184.62954804 44.23339844 181.23828125 C40.94516306 177.19844922 37.60616712 173.20737595 34.23339844 169.23828125 C29.9880838 164.24200907 25.79751159 159.20639559 21.68261719 154.1015625 C20.51774481 152.68924228 19.32115679 151.30093824 18.06542969 149.96875 C15.65382851 147.40853475 14.76047815 146.06323778 14.46386719 142.50390625 C14.75129066 138.48830869 15.66156499 135.48499447 17.10839844 131.73828125 C21.50256955 120.22606687 22.88834267 111.88276745 19.79589844 99.98828125 C19.33492632 98.13021692 18.87399193 96.27214323 18.41308594 94.4140625 C18.14979492 93.36943848 17.88650391 92.32481445 17.61523438 91.24853516 C15.85255801 84.23199008 14.13715371 77.20380067 12.42089844 70.17578125 C12.13462082 69.0053981 12.13462082 69.0053981 11.84255981 67.81137085 C8.83642083 55.50429432 5.97700201 43.16898108 3.23339844 30.80078125 C3.0618222 30.02902557 2.89024597 29.2572699 2.71347046 28.46212769 C-0.27825806 14.97809487 -0.27825806 14.97809487 -1.26660156 8.73828125 C-4.3432305 12.2061578 -5.41481267 15.99485266 -6.64160156 20.36328125 C-8.31480149 26.02970708 -10.26376697 31.1458343 -13.07519531 36.36328125 C-14.82616135 39.85373159 -16.0395415 43.49615884 -17.27441406 47.1953125 C-18.33948111 49.92507095 -19.72600871 52.25156345 -21.26660156 54.73828125 C-21.55535156 55.50140625 -21.84410156 56.26453125 -22.14160156 57.05078125 C-23.12688612 59.40451659 -24.14217669 61.04070737 -25.57910156 63.11328125 C-28.3357152 67.40940719 -29.79122347 71.9208512 -31.32714844 76.76635742 C-33.36579271 83.17475729 -35.84303779 89.36888501 -38.39257812 95.59130859 C-40.44766685 100.63947906 -42.44806439 105.70992216 -44.46313477 110.77416992 C-46.33359091 115.45853672 -48.25790756 120.1114443 -50.26660156 124.73828125 C-50.92660156 124.73828125 -51.58660156 124.73828125 -52.26660156 124.73828125 C-52.38068359 126.10919922 -52.38068359 126.10919922 -52.49707031 127.5078125 C-53.29731455 133.08709848 -55.54045128 138.20357468 -57.57910156 143.42578125 C-58.36912836 145.47047993 -59.15689168 147.51605461 -59.94238281 149.5625 C-60.535271 151.08496338 -60.535271 151.08496338 -61.14013672 152.63818359 C-62.30622759 155.72980816 -62.30622759 155.72980816 -63.17041016 158.93603516 C-65.30864974 166.47330032 -67.81939046 170.30952659 -74.26660156 174.73828125 C-75.11544922 175.33398926 -75.96429688 175.92969727 -76.83886719 176.54345703 C-79.70521312 178.50530932 -82.60441785 180.40770917 -85.51660156 182.30078125 C-94.37523047 188.12409835 -103.12747172 194.06397818 -111.7578125 200.22094727 C-112.51481445 200.75776123 -113.27181641 201.2945752 -114.05175781 201.84765625 C-114.76710693 202.35530518 -115.48245605 202.8629541 -116.21948242 203.38598633 C-118.10945901 204.63447533 -119.99285711 205.6171939 -122.02441406 206.609375 C-126.31765093 209.42842812 -127.84215149 212.53324256 -130.07910156 217.05078125 C-130.93984961 218.69020756 -131.805829 220.32689686 -132.67675781 221.9609375 C-133.10875488 222.77320801 -133.54075195 223.58547852 -133.98583984 224.42236328 C-135.81933052 227.73774501 -137.87577746 230.86529948 -140.01660156 233.98828125 C-144.24669172 240.18222049 -148.31287369 246.46591189 -152.32910156 252.80078125 C-152.93101318 253.74550293 -153.5329248 254.69022461 -154.15307617 255.66357422 C-156.75225746 259.74734189 -159.33837191 263.83506208 -161.84472656 267.9765625 C-162.22878662 268.60103271 -162.61284668 269.22550293 -163.00854492 269.86889648 C-163.98642883 271.46227858 -164.9495717 273.06468348 -165.91113281 274.66796875 C-171.9097548 282.48706805 -179.49722196 287.38192275 -188.07910156 291.98828125 C-190.11921633 293.11528477 -192.15825969 294.24422969 -194.19628906 295.375 C-195.21303711 295.93622559 -196.22978516 296.49745117 -197.27734375 297.07568359 C-211.00749859 304.71226922 -223.97210087 312.94757635 -236.26660156 322.73828125 C-236.80671875 323.16802246 -237.34683594 323.59776367 -237.90332031 324.04052734 C-242.47234973 327.6960386 -246.9317853 331.43400913 -251.26660156 335.36328125 C-252.25660156 336.14703125 -253.24660156 336.93078125 -254.26660156 337.73828125 C-255.25660156 337.40828125 -256.24660156 337.07828125 -257.26660156 336.73828125 C-252.54900224 321.88944404 -252.54900224 321.88944404 -249.30175781 315.89453125 C-247.30914111 311.74387306 -245.93511424 307.33923838 -244.42285156 302.99609375 C-243.58323197 300.63040882 -242.72190995 298.34085011 -241.70410156 296.05078125 C-240.48962243 293.25219889 -239.49718715 290.49711311 -238.51660156 287.61328125 C-233.22236804 273.04914452 -225.06118493 262.56710072 -213.26660156 252.73828125 C-209.79424913 245.79357639 -213.66908202 236.97619683 -215.76660156 230.14453125 C-216.12173828 228.9572644 -216.476875 227.76999756 -216.84277344 226.54675293 C-217.97381318 222.77409432 -219.11996176 219.00622428 -220.26660156 215.23828125 C-221.03967173 212.67384433 -221.80928039 210.10838471 -222.57910156 207.54296875 C-224.46345779 201.27123345 -226.36022297 195.00335543 -228.26660156 188.73828125 C-229.05830602 190.29973226 -229.84742664 191.86249348 -230.63549805 193.42578125 C-231.29508766 194.73095703 -231.29508766 194.73095703 -231.96800232 196.0625 C-233.97686355 200.20178566 -235.65877608 204.45367882 -237.32910156 208.73828125 C-237.98665365 210.40494792 -238.64420573 212.07161458 -239.30175781 213.73828125 C-239.62402344 214.56046143 -239.94628906 215.3826416 -240.27832031 216.22973633 C-241.28430287 218.7832123 -242.3074554 221.32932834 -243.33300781 223.875 C-244.76399794 227.44498413 -246.12973761 231.03127177 -247.44628906 234.64477539 C-249.91314177 241.40696609 -252.6671838 247.92982991 -255.75488281 254.4375 C-257.9805408 259.29714082 -259.92169378 264.25512807 -261.87207031 269.23046875 C-268.54578573 286.01757364 -278.06657432 295.18865124 -292.95581055 304.86767578 C-299.89383912 309.39976934 -306.51971467 314.29855838 -313.07275391 319.36962891 C-313.82508301 319.93987793 -314.57741211 320.51012695 -315.35253906 321.09765625 C-316.01302246 321.60780273 -316.67350586 322.11794922 -317.35400391 322.64355469 C-319.26660156 323.73828125 -319.26660156 323.73828125 -323.26660156 323.73828125 C-323.47285156 324.41890625 -323.67910156 325.09953125 -323.89160156 325.80078125 C-325.7015362 329.66745979 -328.16504531 332.80245702 -331.26660156 335.73828125 C-332.25660156 336.06828125 -333.24660156 336.39828125 -334.26660156 336.73828125 C-336.96390216 339.69246762 -338.9950463 341.92361545 -340.26660156 345.73828125 C-342.21327337 347.58227146 -344.27460876 349.23298037 -346.35644531 350.921875 C-348.31310046 352.78249799 -349.14882947 354.31479307 -350.26660156 356.73828125 C-351.93326823 358.40494792 -353.5999349 360.07161458 -355.26660156 361.73828125 C-356.34722313 363.07803146 -357.4079836 364.43391958 -358.45410156 365.80078125 C-374.7060381 386.89296845 -374.7060381 386.89296845 -388.84863281 389.96484375 C-391.53228751 390.82326642 -392.35166135 391.74457743 -394.26660156 393.73828125 C-396.06475108 394.702795 -397.90564892 395.58883219 -399.76660156 396.42578125 C-400.91515625 396.94269531 -402.06371094 397.45960938 -403.24707031 397.9921875 C-408.6231217 400.34718949 -414.03907952 402.61101358 -419.46582031 404.84643555 C-423.91106202 406.68973285 -428.22261467 408.68115057 -432.5090332 410.86767578 C-434.65148283 411.92893087 -436.83601533 412.78832834 -439.07910156 413.61328125 C-448.59533319 417.23172361 -448.59533319 417.23172361 -456.64550781 423.19140625 C-459.14588464 425.57730799 -462.19369689 426.91766512 -465.26660156 428.42578125 C-465.89566406 428.74611328 -466.52472656 429.06644531 -467.17285156 429.39648438 C-470.06104049 430.83140027 -471.99907017 431.73828125 -475.26660156 431.73828125 C-473.89450389 427.44105227 -472.04522501 425.28217813 -468.64160156 422.36328125 C-467.82433594 421.65429688 -467.00707031 420.9453125 -466.16503906 420.21484375 C-464.68331326 418.94878693 -463.20089398 417.68341815 -461.7048645 416.43429565 C-455.38466284 411.05318694 -449.58351862 405.17020147 -443.73872375 399.28556824 C-441.82283688 397.35676362 -439.90370884 395.43123522 -437.98376465 393.50646973 C-433.90854184 389.41989284 -429.83727438 385.32938978 -425.76660156 381.23828125 C-421.04454837 376.49252227 -416.32083087 371.74844461 -411.59284973 367.0085907 C-409.71423239 365.12355349 -407.83868408 363.23550027 -405.96325684 361.34729004 C-400.73937569 356.10135597 -395.52112571 350.9391641 -389.88031006 346.13604736 C-387.57903684 344.14272469 -385.48294511 341.98039605 -383.38378906 339.77734375 C-371.92156119 327.91758196 -361.7707823 318.82125299 -346.89160156 311.61328125 C-338.1084146 307.33817566 -332.88337756 301.70295673 -327.41894531 293.6796875 C-322.22090931 286.57601942 -316.06003839 280.4858492 -309.76660156 274.36328125 C-301.52605848 266.22518196 -295.14924163 258.2847838 -290.26660156 247.73828125 C-289.60660156 247.73828125 -288.94660156 247.73828125 -288.26660156 247.73828125 C-287.99976563 246.8771875 -287.73292969 246.01609375 -287.45800781 245.12890625 C-283.80602818 234.73573144 -277.96747335 226.48948554 -270.26660156 218.73828125 C-269.43644531 217.88234375 -268.60628906 217.02640625 -267.75097656 216.14453125 C-264.18173474 212.50959786 -260.58046652 208.99363107 -256.70800781 205.68359375 C-250.94739883 200.68033681 -245.63620237 195.2146416 -240.26660156 189.80078125 C-239.19522269 188.72437471 -238.12360974 187.64820111 -237.05175781 186.57226562 C-234.45400519 183.9636138 -231.85942194 181.35183654 -229.26660156 178.73828125 C-225.82912012 179.80744529 -222.76898844 180.81059359 -219.81347656 182.8828125 C-219.20286377 183.30643066 -218.59225098 183.73004883 -217.96313477 184.16650391 C-217.32077881 184.62331543 -216.67842285 185.08012695 -216.01660156 185.55078125 C-215.3349292 186.02563965 -214.65325684 186.50049805 -213.95092773 186.98974609 C-210.05987098 189.71414644 -206.21788204 192.50050329 -202.39550781 195.3203125 C-201.59209961 195.91030029 -200.78869141 196.50028809 -199.9609375 197.1081543 C-198.39940671 198.2588149 -196.84380867 199.41758018 -195.29492188 200.58520508 C-190.29178948 204.54127476 -190.29178948 204.54127476 -184.26660156 205.73828125 C-179.37354177 202.93575474 -177.20479994 198.68032648 -174.64160156 193.86328125 C-174.26003906 193.16847656 -173.87847656 192.47367188 -173.48535156 191.7578125 C-171.32140748 187.79555627 -169.26035338 183.78928017 -167.26660156 179.73828125 C-166.60660156 179.73828125 -165.94660156 179.73828125 -165.26660156 179.73828125 C-165.01209229 179.04750488 -164.75758301 178.35672852 -164.49536133 177.64501953 C-163.09765105 174.33861409 -161.40630975 171.33668283 -159.60644531 168.23046875 C-159.25651016 167.62316925 -158.90657501 167.01586975 -158.54603577 166.39016724 C-157.43516676 164.46272297 -156.32009017 162.53776517 -155.20410156 160.61328125 C-154.08475052 158.68154068 -152.96641932 156.74924849 -151.85145569 154.81497192 C-150.8426976 153.06504119 -149.83001674 151.3173735 -148.81713867 149.56982422 C-147.18360766 146.78644224 -147.18360766 146.78644224 -146.26660156 143.73828125 C-145.60660156 143.73828125 -144.94660156 143.73828125 -144.26660156 143.73828125 C-144.01265625 143.02414062 -143.75871094 142.31 -143.49707031 141.57421875 C-138.36009319 129.73470957 -128.33172709 121.35127613 -118.32861328 113.73242188 C-114.69786073 110.95210678 -111.46308209 108.02428429 -108.26660156 104.73828125 C-106.6737702 103.26757562 -105.06955637 101.80910025 -103.45410156 100.36328125 C-102.58011719 99.58082031 -101.70613281 98.79835938 -100.80566406 97.9921875 C-98.65604378 96.08398611 -96.49723798 94.18786295 -94.32910156 92.30078125 C-91.10684011 89.48293318 -87.89576316 86.65327445 -84.70410156 83.80078125 C-83.40279297 82.64255859 -83.40279297 82.64255859 -82.07519531 81.4609375 C-79.93161487 79.38294644 -78.02463788 77.33508776 -76.09472656 75.07348633 C-72.31878776 70.73363883 -68.30720798 66.68499247 -64.20800781 62.65234375 C-62.67206311 61.12904478 -61.13626019 59.60560286 -59.60058594 58.08203125 C-57.21542882 55.72162507 -54.82868484 53.36287036 -52.43920898 51.00683594 C-41.11294928 39.89785451 -41.11294928 39.89785451 -30.92358398 27.77099609 C-28.67836861 25.01666233 -26.10127361 22.84234096 -23.37792969 20.57421875 C-20.93902967 18.45343613 -18.71439829 16.18843922 -16.46972656 13.86328125 C-15.65632813 13.02410156 -14.84292969 12.18492187 -14.00488281 11.3203125 C-12.32287505 9.57493239 -10.6485707 7.82210075 -8.98144531 6.0625 C-7.76908203 4.81919922 -7.76908203 4.81919922 -6.53222656 3.55078125 C-5.44603027 2.41576172 -5.44603027 2.41576172 -4.33789062 1.2578125 C-2.26660156 -0.26171875 -2.26660156 -0.26171875 0 0 Z " fill="#2E3E39" transform="translate(536.2666015625,324.26171875)"/>
<path d="M0 0 C293.7 0 587.4 0 890 0 C890 189.42 890 378.84 890 574 C886 573 886 573 884.57470703 571.21606445 C884.14013184 570.439646 883.70555664 569.66322754 883.2578125 568.86328125 C882.75580322 567.98639648 882.25379395 567.10951172 881.73657227 566.20605469 C881.20475342 565.25118164 880.67293457 564.29630859 880.125 563.3125 C878.97340198 561.30146343 877.81834438 559.29240471 876.66015625 557.28515625 C876.06219238 556.24762207 875.46422852 555.21008789 874.84814453 554.14111328 C871.34457271 548.18642966 867.58858186 542.39345304 863.84619141 536.5871582 C862.22220479 534.06348588 860.61063768 531.53220599 859 529 C858.45972168 528.17177734 857.91944336 527.34355469 857.36279297 526.49023438 C856.57799561 525.24983398 856.57799561 525.24983398 855.77734375 523.984375 C855.31448975 523.26475586 854.85163574 522.54513672 854.37475586 521.80371094 C850.59212552 514.08932151 849.56102619 506.67874084 849.63250732 498.17121887 C849.62923848 497.12389719 849.62596964 496.07657551 849.62260175 494.99751681 C849.61534981 491.50315901 849.62945867 488.00922451 849.64355469 484.51489258 C849.64276258 481.99263946 849.64066154 479.47038646 849.63735962 476.94813538 C849.63274484 470.77324342 849.64210446 464.59850477 849.65764758 458.42363492 C849.67551666 451.04679291 849.67661515 443.66997259 849.67726317 436.29311236 C849.67895803 422.89728712 849.69476307 409.50151524 849.71875 396.10571289 C849.74120671 383.55329752 849.75581517 371.00092242 849.75976562 358.44848633 C849.79396213 252.29540082 850.41992896 146.15300024 851 40 C583.04 40 315.08 40 39 40 C39.33 74.65 39.66 109.3 40 145 C40.17423399 165.57063523 40.34751087 186.14120144 40.50525212 206.71195769 C40.53638335 210.76523667 40.56777108 214.81851358 40.59924126 218.87178993 C40.68826076 230.34261069 40.77702982 241.81343328 40.86443424 253.28426647 C40.86983434 253.9929637 40.87523445 254.70166092 40.88079819 255.43183382 C40.89171314 256.86449579 40.90262774 258.29715776 40.91354198 259.72981974 C40.91895057 260.43974338 40.92435916 261.14966703 40.92993164 261.88110352 C40.93534737 262.59199429 40.9407631 263.30288507 40.94634294 264.03531799 C41.03497759 275.66208579 41.12589424 287.28883459 41.21774632 298.91557737 C41.31453182 311.17078151 41.40944347 323.42599909 41.50260442 335.68123132 C41.55399471 342.43668417 41.60607455 349.19212939 41.66017342 355.94756126 C41.76843696 369.53600627 41.86351587 383.1243668 41.93199652 396.71307522 C41.97021985 403.91986028 42.02788408 411.12612104 42.1030721 418.33258947 C42.160566 423.93504083 42.20239821 429.53749282 42.23422367 435.1401476 C42.2537357 438.468336 42.28222759 441.79578918 42.32489026 445.12380445 C42.75863563 479.75192676 35.34903721 506.28624197 20 537 C19.21835518 538.57662724 18.43706402 540.1534299 17.65625 541.73046875 C15.78662061 545.4950518 13.89490859 549.248081 12 553 C10.83108513 555.33221596 9.66558634 557.66611665 8.5 560 C7.66666667 561.66666667 6.83333333 563.33333333 6 565 C5.34 565 4.68 565 4 565 C3.71125 565.94875 3.4225 566.8975 3.125 567.875 C2 571 2 571 0 573 C0 383.91 0 194.82 0 0 Z " fill="#2F3F39" transform="translate(108,55)"/>
<path d="M0 0 C2.2559215 -0.00962013 4.51089658 -0.04064821 6.76660156 -0.07226562 C37.60451575 -0.29656986 65.6291623 14.62101044 87.54003906 35.67773438 C107.90206438 56.65459882 118.3005348 86.90074337 117.94238281 115.75976562 C117.53298573 131.53001188 113.74056386 146.13475758 106.79003906 160.24023438 C106.21793925 161.48811443 105.64775033 162.73687168 105.07910156 163.98632812 C92.5043576 191.04964999 70.37028047 209.59026186 43.10253906 220.99023438 C42.40161133 221.28430176 41.70068359 221.57836914 40.97851562 221.88134766 C32.132338 225.47601795 21.51213384 229.07547374 12.24316406 225.16601562 C9.29472074 223.34841936 6.54594446 221.33084092 3.79003906 219.24023438 C2.29414037 218.13793933 0.79660925 217.03785773 -0.70214844 215.93945312 C-3.1901412 214.11298602 -5.67459126 212.28251635 -8.14941406 210.43823242 C-12.60939471 207.11760148 -17.09670895 203.93616395 -21.77246094 200.92773438 C-36.15429343 191.44652631 -45.24038692 178.38713838 -54.54199219 164.24194336 C-58.5998433 158.08886615 -62.85602392 152.10530134 -67.19995117 146.15185547 C-71.99065575 139.57778124 -76.65461309 132.91985028 -81.27783203 126.22705078 C-88.9325617 115.10443923 -88.9325617 115.10443923 -98.33496094 105.49023438 C-99.17929687 104.74257813 -100.02363281 103.99492187 -100.89355469 103.22460938 C-102.23315952 102.0770221 -103.59173843 100.94951541 -104.99511719 99.88085938 C-106.39746094 98.74023438 -106.39746094 98.74023438 -108.20996094 96.24023438 C-108.32481658 92.79456503 -108.00465829 90.54849697 -107.20996094 87.24023438 C-106.91863281 85.98597656 -106.62730469 84.73171875 -106.32714844 83.43945312 C-101.29195547 63.54498048 -89.60765683 47.35404385 -75.57275391 32.67480469 C-74.29016326 31.3246609 -73.03235119 29.9511014 -71.77636719 28.57617188 C-53.05791367 8.72047241 -26.72439749 0.06867083 0 0 Z " fill="#C7A872" transform="translate(745.2099609375,293.759765625)"/>
<path d="M0 0 C1.08128971 3.24386914 0.98641762 3.8006281 -0.0390625 6.87890625 C-0.411521 8.00607056 -0.411521 8.00607056 -0.79150391 9.15600586 C-1.06655762 9.95014893 -1.34161133 10.74429199 -1.625 11.5625 C-1.90134277 12.37662354 -2.17768555 13.19074707 -2.46240234 14.02954102 C-4.23684033 19.13729286 -6.27249399 23.93189592 -8.84375 28.6953125 C-10.58205582 32.16017883 -11.78198042 35.78495904 -13.0078125 39.45703125 C-14.07287955 42.1867897 -15.45940715 44.5132822 -17 47 C-17.28875 47.763125 -17.5775 48.52625 -17.875 49.3125 C-18.86028456 51.66623534 -19.87557513 53.30242612 -21.3125 55.375 C-24.06911364 59.67112594 -25.52462191 64.18256995 -27.06054688 69.02807617 C-29.09919115 75.43647604 -31.57643623 81.63060376 -34.12597656 87.85302734 C-36.18106529 92.90119781 -38.18146283 97.97164091 -40.1965332 103.03588867 C-42.06698935 107.72025547 -43.991306 112.37316305 -46 117 C-46.66 117 -47.32 117 -48 117 C-48.11408203 118.37091797 -48.11408203 118.37091797 -48.23046875 119.76953125 C-49.03071298 125.34881723 -51.27384971 130.46529343 -53.3125 135.6875 C-54.1025268 137.73219868 -54.89029012 139.77777336 -55.67578125 141.82421875 C-56.26866943 143.34668213 -56.26866943 143.34668213 -56.87353516 144.89990234 C-58.03962603 147.99152691 -58.03962603 147.99152691 -58.90380859 151.19775391 C-61.04204817 158.73501907 -63.5527889 162.57124534 -70 167 C-70.84884766 167.59570801 -71.69769531 168.19141602 -72.57226562 168.80517578 C-75.43861155 170.76702807 -78.33781628 172.66942792 -81.25 174.5625 C-90.1086289 180.3858171 -98.86087016 186.32569693 -107.49121094 192.48266602 C-108.24821289 193.01947998 -109.00521484 193.55629395 -109.78515625 194.109375 C-110.50050537 194.61702393 -111.21585449 195.12467285 -111.95288086 195.64770508 C-113.84285744 196.89619408 -115.72625555 197.87891265 -117.7578125 198.87109375 C-122.05104937 201.69014687 -123.57554993 204.79496131 -125.8125 209.3125 C-126.67324805 210.95192631 -127.53922744 212.58861561 -128.41015625 214.22265625 C-128.84215332 215.03492676 -129.27415039 215.84719727 -129.71923828 216.68408203 C-131.55272896 219.99946376 -133.6091759 223.12701823 -135.75 226.25 C-139.98009016 232.44393924 -144.04627213 238.72763064 -148.0625 245.0625 C-148.66441162 246.00722168 -149.26632324 246.95194336 -149.88647461 247.92529297 C-152.48565589 252.00906064 -155.07177035 256.09678083 -157.578125 260.23828125 C-157.96218506 260.86275146 -158.34624512 261.48722168 -158.74194336 262.13061523 C-159.71982727 263.72399733 -160.68297013 265.32640223 -161.64453125 266.9296875 C-167.64315323 274.7487868 -175.23062039 279.6436415 -183.8125 284.25 C-185.85261477 285.37700352 -187.89165813 286.50594844 -189.9296875 287.63671875 C-190.94643555 288.19794434 -191.96318359 288.75916992 -193.01074219 289.33740234 C-206.74089703 296.97398797 -219.70549931 305.2092951 -232 315 C-232.54011719 315.42974121 -233.08023438 315.85948242 -233.63671875 316.30224609 C-238.20574817 319.95775735 -242.66518374 323.69572788 -247 327.625 C-247.99 328.40875 -248.98 329.1925 -250 330 C-250.99 329.67 -251.98 329.34 -253 329 C-248.28240068 314.15116279 -248.28240068 314.15116279 -245.03515625 308.15625 C-243.04253955 304.00559181 -241.66851267 299.60095713 -240.15625 295.2578125 C-239.31663041 292.89212757 -238.45530838 290.60256886 -237.4375 288.3125 C-236.22302086 285.51391764 -235.23058558 282.75883186 -234.25 279.875 C-228.95576648 265.31086327 -220.79458336 254.82881947 -209 245 C-205.52764757 238.05529514 -209.40248046 229.23791558 -211.5 222.40625 C-211.85513672 221.21898315 -212.21027344 220.03171631 -212.57617188 218.80847168 C-213.70721162 215.03581307 -214.8533602 211.26794303 -216 207.5 C-216.77307017 204.93556308 -217.54267883 202.37010346 -218.3125 199.8046875 C-220.19685623 193.5329522 -222.09362141 187.26507418 -224 181 C-224.79170446 182.56145101 -225.58082508 184.12421223 -226.36889648 185.6875 C-227.0284861 186.99267578 -227.0284861 186.99267578 -227.70140076 188.32421875 C-229.71026199 192.46350441 -231.39217452 196.71539757 -233.0625 201 C-233.72005208 202.66666667 -234.37760417 204.33333333 -235.03515625 206 C-235.35742188 206.82218018 -235.6796875 207.64436035 -236.01171875 208.49145508 C-237.0177013 211.04493105 -238.04085383 213.59104709 -239.06640625 216.13671875 C-240.49739637 219.70670288 -241.86313604 223.29299052 -243.1796875 226.90649414 C-245.64654021 233.66868484 -248.40058224 240.19154866 -251.48828125 246.69921875 C-253.71393924 251.55885957 -255.65509222 256.51684682 -257.60546875 261.4921875 C-264.27918417 278.27929239 -273.79997276 287.45036999 -288.68920898 297.12939453 C-295.62723756 301.66148809 -302.25311311 306.56027713 -308.80615234 311.63134766 C-309.55848145 312.20159668 -310.31081055 312.7718457 -311.0859375 313.359375 C-311.7464209 313.86952148 -312.4069043 314.37966797 -313.08740234 314.90527344 C-315 316 -315 316 -319 316 C-319.20625 316.680625 -319.4125 317.36125 -319.625 318.0625 C-321.43493463 321.92917854 -323.89844375 325.06417577 -327 328 C-327.99 328.33 -328.98 328.66 -330 329 C-332.6973006 331.95418637 -334.72844473 334.1853342 -336 338 C-337.9466718 339.84399021 -340.00800719 341.49469912 -342.08984375 343.18359375 C-344.0464989 345.04421674 -344.8822279 346.57651182 -346 349 C-347.66666667 350.66666667 -349.33333333 352.33333333 -351 354 C-352.08062157 355.33975021 -353.14138204 356.69563833 -354.1875 358.0625 C-370.43943654 379.1546872 -370.43943654 379.1546872 -384.58203125 382.2265625 C-387.26568595 383.08498517 -388.08505979 384.00629618 -390 386 C-391.79814952 386.96451375 -393.63904736 387.85055094 -395.5 388.6875 C-396.64855469 389.20441406 -397.79710937 389.72132813 -398.98046875 390.25390625 C-404.35652014 392.60890824 -409.77247796 394.87273233 -415.19921875 397.1081543 C-419.64446046 398.9514516 -423.95601311 400.94286932 -428.24243164 403.12939453 C-430.38488127 404.19064962 -432.56941377 405.05004709 -434.8125 405.875 C-444.32873162 409.49344236 -444.32873162 409.49344236 -452.37890625 415.453125 C-454.87928308 417.83902674 -457.92709533 419.17938387 -461 420.6875 C-461.6290625 421.00783203 -462.258125 421.32816406 -462.90625 421.65820312 C-465.79443893 423.09311902 -467.73246861 424 -471 424 C-469.62790233 419.70277102 -467.77862344 417.54389688 -464.375 414.625 C-463.55773437 413.91601562 -462.74046875 413.20703125 -461.8984375 412.4765625 C-460.4167117 411.21050568 -458.93429242 409.9451369 -457.43826294 408.6960144 C-451.11806127 403.31490569 -445.31691706 397.43192022 -439.47212219 391.54728699 C-437.55623531 389.61848237 -435.63710727 387.69295397 -433.71716309 385.76818848 C-429.64194028 381.68161159 -425.57067282 377.59110853 -421.5 373.5 C-416.7779468 368.75424102 -412.05422931 364.01016336 -407.32624817 359.27030945 C-405.44763083 357.38527224 -403.57208252 355.49721902 -401.69665527 353.60900879 C-396.47277413 348.36307472 -391.25452415 343.20088285 -385.6137085 338.39776611 C-383.31243528 336.40444344 -381.21634355 334.2421148 -379.1171875 332.0390625 C-367.65495962 320.17930071 -357.50418074 311.08297174 -342.625 303.875 C-333.84181304 299.59989441 -328.616776 293.96467548 -323.15234375 285.94140625 C-317.95430775 278.83773817 -311.79343683 272.74756795 -305.5 266.625 C-297.25945692 258.48690071 -290.88264007 250.54650255 -286 240 C-285.34 240 -284.68 240 -284 240 C-283.73316406 239.13890625 -283.46632813 238.2778125 -283.19140625 237.390625 C-279.53942662 226.99745019 -273.70087179 218.75120429 -266 211 C-265.16984375 210.1440625 -264.3396875 209.288125 -263.484375 208.40625 C-259.91513317 204.77131661 -256.31386495 201.25534982 -252.44140625 197.9453125 C-246.68079726 192.94205556 -241.36960081 187.47636035 -236 182.0625 C-234.92862113 180.98609346 -233.85700818 179.90991986 -232.78515625 178.83398438 C-230.18740362 176.22533255 -227.59282038 173.61355529 -225 171 C-221.56251856 172.06916404 -218.50238688 173.07231234 -215.546875 175.14453125 C-214.93626221 175.56814941 -214.32564941 175.99176758 -213.6965332 176.42822266 C-213.05417725 176.88503418 -212.41182129 177.3418457 -211.75 177.8125 C-211.06832764 178.2873584 -210.38665527 178.7622168 -209.68432617 179.25146484 C-205.79326942 181.97586519 -201.95128048 184.76222204 -198.12890625 187.58203125 C-197.32549805 188.17201904 -196.52208984 188.76200684 -195.69433594 189.36987305 C-194.13280515 190.52053365 -192.57720711 191.67929893 -191.02832031 192.84692383 C-186.02518792 196.80299351 -186.02518792 196.80299351 -180 198 C-175.10694021 195.19747349 -172.93819838 190.94204523 -170.375 186.125 C-169.9934375 185.43019531 -169.611875 184.73539063 -169.21875 184.01953125 C-167.05480592 180.05727502 -164.99375182 176.05099892 -163 172 C-162.34 172 -161.68 172 -161 172 C-160.74549072 171.30922363 -160.49098145 170.61844727 -160.22875977 169.90673828 C-158.83104949 166.60033284 -157.13970819 163.59840158 -155.33984375 160.4921875 C-154.9899086 159.884888 -154.63997345 159.2775885 -154.2794342 158.65188599 C-153.1685652 156.72444172 -152.05348861 154.79948392 -150.9375 152.875 C-149.81814896 150.94325943 -148.69981775 149.01096724 -147.58485413 147.07669067 C-146.57609604 145.32675994 -145.56341517 143.57909225 -144.55053711 141.83154297 C-142.9170061 139.04816099 -142.9170061 139.04816099 -142 136 C-141.34 136 -140.68 136 -140 136 C-139.74605469 135.28585937 -139.49210937 134.57171875 -139.23046875 133.8359375 C-134.09349163 121.99642832 -124.06512553 113.61299488 -114.06201172 105.99414062 C-110.43125917 103.21382553 -107.19648053 100.28600304 -104 97 C-102.40716864 95.52929437 -100.8029548 94.070819 -99.1875 92.625 C-98.31351562 91.84253906 -97.43953125 91.06007813 -96.5390625 90.25390625 C-94.38944222 88.34570486 -92.23063642 86.4495817 -90.0625 84.5625 C-86.84023855 81.74465193 -83.6291616 78.9149932 -80.4375 76.0625 C-79.13619141 74.90427734 -79.13619141 74.90427734 -77.80859375 73.72265625 C-75.66633838 71.64594973 -73.75951341 69.59942557 -71.83032227 67.33959961 C-68.03783264 62.9807822 -64.01425358 58.90356997 -59.90625 54.84375 C-59.15589478 54.0971814 -58.40553955 53.35061279 -57.63244629 52.5814209 C-54.45783496 49.42298888 -51.27724084 46.27060721 -48.09716797 43.11767578 C-45.76059639 40.79930255 -43.42712001 38.4778448 -41.09375 36.15625 C-40.03250916 35.10745667 -40.03250916 35.10745667 -38.9498291 34.03747559 C-34.95170196 30.05883875 -31.20076006 25.98963456 -27.63580322 21.61584473 C-25.34437048 19.35236984 -23.01046581 18.73873434 -19.99023438 17.82421875 C-16.1289049 16.22512058 -13.54392905 13.01645438 -10.75 10 C-9.55948711 8.74790886 -8.36684165 7.49784128 -7.171875 6.25 C-6.62466797 5.67636719 -6.07746094 5.10273438 -5.51367188 4.51171875 C-3.80395702 2.80420997 -2.00436179 1.34947131 0 0 Z " fill="#2E3E39" transform="translate(532,332)"/>
<path d="M0 0 C11.46073528 1.06375247 22.86635488 2.56618687 34.2670536 4.13618469 C37.80360288 4.62241606 41.34081178 5.09359428 44.88378906 5.53076172 C48.34349883 5.95811781 51.79614304 6.42363612 55.24726486 6.91540527 C57.17802297 7.18082725 59.11394103 7.40781996 61.04971313 7.63378906 C68.66409275 8.76326968 72.68477761 10.51162817 77.44735718 16.65405273 C83.97825841 26.52184053 85.82437413 34.17611956 85 46 C81.73806331 61.3271724 71.23001233 72.35249151 58.55639648 80.72875977 C28.80485002 99.69732869 -5.90687057 107.63060911 -40 115 C-37.45564709 116.94956453 -34.88695661 118.74829867 -32.15625 120.42578125 C-21.05282412 127.30807002 -10.30185157 134.5754034 0.35498047 142.12744141 C16.34097193 153.4448269 32.4876976 164.46307976 49 175 C49.87333984 175.5578418 50.74667969 176.11568359 51.64648438 176.69042969 C65.78887333 185.68285436 80.26593065 194.01729671 95 202 C95.93553711 202.5141748 96.87107422 203.02834961 97.83496094 203.55810547 C133.56752339 223.04801751 171.97194236 233.33977357 212 239 C212 239.99 212 240.98 212 242 C197.43120517 246.85626494 179.39544229 245.21584064 164.1875 245.25 C163.27637451 245.25508575 162.36524902 245.26017151 161.42651367 245.26541138 C144.1215872 245.34295007 127.52579462 243.67298171 110.5 240.5625 C108.74429688 240.25602539 108.74429688 240.25602539 106.953125 239.94335938 C100.13084269 238.71580746 93.58631765 237.1530589 87 235 C86.24138672 234.7625708 85.48277344 234.5251416 84.70117188 234.28051758 C75.74972729 231.47208873 67.2856001 228.44788998 59 224 C56.67328135 222.98470459 54.3396553 221.98511802 52 221 C48.32663166 219.34798244 44.66263138 217.67567042 41 216 C41 215.34 41 214.68 41 214 C40.19046875 213.77828125 39.3809375 213.5565625 38.546875 213.328125 C34.06204805 211.64878451 30.27627756 209.31892848 26.25 206.75 C25.41871582 206.22132324 24.58743164 205.69264648 23.73095703 205.14794922 C14.71586391 199.31345049 6.32870026 192.76464246 -2 186 C-2.72461426 185.41428223 -3.44922852 184.82856445 -4.19580078 184.22509766 C-11.74347062 178.11234603 -19.18046285 171.88399366 -26.5 165.5 C-47.916321 146.84368964 -69.8062542 130.42526897 -94.9375 117.125 C-95.8138208 116.66013184 -96.6901416 116.19526367 -97.59301758 115.71630859 C-102.63431226 113.08962238 -107.63360638 110.87792685 -113 109 C-109.42446584 105.6678268 -105.52772495 105.06765952 -100.875 104.25 C-99.07913773 103.91168866 -97.2835886 103.57171265 -95.48828125 103.23046875 C-94.47459473 103.0401709 -93.4609082 102.84987305 -92.41650391 102.65380859 C-85.61922519 101.3530288 -78.84126567 99.95605677 -72.0625 98.5625 C-71.32252777 98.41061218 -70.58255554 98.25872437 -69.82015991 98.10223389 C-58.64393245 95.80372529 -47.52806776 93.331925 -36.45068359 90.59277344 C-33.81250696 89.95464902 -31.16764514 89.35330136 -28.51953125 88.7578125 C-5.68919877 83.59129681 12.30493164 74.52012284 30.91992188 60.53808594 C32.8222547 59.13143139 34.74919082 57.77889927 36.703125 56.4453125 C43.93914696 51.60101183 43.93914696 51.60101183 47.73046875 44.09765625 C47.81941406 43.40542969 47.90835938 42.71320312 48 42 C48.11988281 41.19433594 48.23976563 40.38867188 48.36328125 39.55859375 C48.72567305 34.90434616 48.27943716 31.7239943 45.5625 27.875 C44.41276265 26.54960834 43.2227176 25.25838019 42 24 C41.38125 23.34257813 40.7625 22.68515625 40.125 22.0078125 C30.90899753 13.03617373 18.97750199 7.98335129 6.92578125 4.0078125 C4.47527674 3.16371348 2.27481787 2.22873374 0 1 C0 0.67 0 0.34 0 0 Z " fill="#31413C" transform="translate(571,773)"/>
<path d="M0 0 C3 1 3 1 4.52539062 2.90429688 C6.61862516 7.29870316 7.55400168 11.79151214 8.59375 16.53125 C8.82654663 17.55875366 9.05934326 18.58625732 9.29919434 19.64489746 C10.04111371 22.9281239 10.77078019 26.21393213 11.5 29.5 C11.99006628 31.67987182 12.48094355 33.85956148 12.97265625 36.0390625 C13.91062002 40.19989834 14.84264856 44.36199225 15.77026367 48.52514648 C16.96891715 53.89070355 18.22237887 59.2413929 19.51879883 64.58422852 C19.98212017 66.910238 20.10746921 69.07290433 20.1875 71.4375 C21.23210548 76.01769325 22.90300155 76.88796283 26.69921875 79.3828125 C29.21146954 81.14863903 31.18697553 83.09889074 33.3125 85.3125 C36.58308167 88.67346044 39.96811994 91.68849029 43.625 94.625 C55.03043522 103.82241921 62.27660847 114.17256846 69.0625 127.125 C74.19308008 136.77136668 79.55863909 146.24533832 85.15454102 155.62939453 C96 173.93941075 96 173.93941075 96 179 C86.22410639 175.47512184 78.20015093 167.5861099 70.2565918 161.0612793 C65.59309021 157.24698039 60.84272472 153.5832833 56 150 C49.78903437 145.4011453 43.76324752 140.61644343 37.7890625 135.71484375 C33.74495762 132.40169692 29.65835121 129.16875591 25.5 126 C19.91326042 121.73916153 14.45755753 117.33541385 9.01611328 112.89111328 C2.97230141 107.96067333 -3.14797863 103.13420164 -9.29541016 98.33398438 C-10.9960332 97.00310435 -12.6920927 95.66663044 -14.38671875 94.328125 C-23.51671197 87.12085308 -32.74463573 80.04535482 -42 73 C-40.71805916 67.27496875 -38.61682664 63.68407737 -35 59.125 C-26.17988409 47.53143635 -19.38619184 34.89679738 -12.70141602 21.98803711 C-8.78215142 14.46332942 -4.46318782 7.21225278 0 0 Z " fill="#F4EFE7" transform="translate(861,569)"/>
<path d="M0 0 C0 0.33 0 0.66 0 1 C-0.98242676 1.01458252 -1.96485352 1.02916504 -2.97705078 1.04418945 C-63.61560135 2.00735263 -124.74848175 7.51126344 -183.70556641 22.19140625 C-186.64490582 22.91284482 -189.58897508 23.59176438 -192.54296875 24.25 C-228.63835339 32.48245354 -265.18046768 44.75173408 -298.59106445 60.71655273 C-302.20698751 62.40763277 -304.98669682 63.40983636 -309 63 C-284.95724914 31.17871209 -237.11026712 15.37973774 -200 7 C-200 6.34 -200 5.68 -200 5 C-195.8803623 3.70756464 -192.33168317 2.73747375 -188 3 C-188 3.66 -188 4.32 -188 5 C-187.43643799 4.89453857 -186.87287598 4.78907715 -186.29223633 4.68041992 C-166.29507413 1.02310426 -146.26088763 -0.66116941 -126 -2 C-124.90397461 -2.07347656 -123.80794922 -2.14695312 -122.67871094 -2.22265625 C-83.62770582 -4.69041725 -38.63708245 -7.08937293 0 0 Z " fill="#35443F" transform="translate(344,748)"/>
<path d="M0 0 C53.77995 -0.39264536 53.77995 -0.39264536 80 0.9375 C80.87114441 0.98106628 81.74228882 1.02463257 82.63983154 1.06951904 C85.09360094 1.19519892 87.54685313 1.32758064 90 1.46484375 C91.04953354 1.52273827 91.04953354 1.52273827 92.12026978 1.58180237 C96.7821956 1.86336591 101.37338859 2.38326908 106 3 C106.495 4.98 106.495 4.98 107 7 C108.051875 6.67 109.10375 6.34 110.1875 6 C120.67301314 3.41755875 131.59719743 5.26251184 142.0625 7.0625 C143.39563633 7.28609291 144.7288079 7.50947583 146.06201172 7.73266602 C150.37922253 8.46329293 154.69025783 9.22665212 159 10 C160.1327536 10.20296692 160.1327536 10.20296692 161.28839111 10.41003418 C179.78305412 13.7386936 198.07396236 17.25609357 216 23 C216 23.33 216 23.66 216 24 C206.83699695 23.36067351 197.7615782 22.26287352 188.65850067 21.07023048 C185.16752283 20.61327953 181.67564373 20.16339582 178.18380547 19.71307468 C176.32150395 19.47289997 174.45923664 19.23245987 172.59700203 18.99176693 C142.15954961 15.05881758 111.7159609 11.22380317 81.1875 8.0625 C80.51266823 7.99259983 79.83783646 7.92269966 79.14255524 7.8506813 C52.79796306 5.13090986 26.41428679 2.918213 0 1 C0 0.67 0 0.34 0 0 Z " fill="#43514C" transform="translate(349,748)"/>
<path d="M0 0 C0.495 1.485 0.495 1.485 1 3 C-2.17048829 8.87282922 -7.43081998 13.70401857 -12.1484375 18.34375 C-12.80582916 18.99831177 -13.46322083 19.65287354 -14.14053345 20.32727051 C-16.21398671 22.38964733 -18.2943284 24.44490845 -20.375 26.5 C-21.79343289 27.90838687 -23.21140598 29.31723698 -24.62890625 30.7265625 C-28.08065124 34.15641373 -31.53858665 37.57990748 -35 41 C-36.32 40.34 -37.64 39.68 -39 39 C-26.13 26.13 -13.26 13.26 0 0 Z M-55 54 C-54.34 54.33 -53.68 54.66 -53 55 C-53.66 55.66 -54.32 56.32 -55 57 C-52.525 58.98 -52.525 58.98 -50 61 C-52.26727333 62.17407021 -54.53834624 63.33939739 -56.8125 64.5 C-57.45509766 64.83386719 -58.09769531 65.16773438 -58.75976562 65.51171875 C-61.69547699 67.00239084 -63.66126517 68 -67 68 C-65.60089587 63.47301364 -63.4384826 61.24844018 -59.875 58.1875 C-58.96492188 57.39730469 -58.05484375 56.60710938 -57.1171875 55.79296875 C-56.06917969 54.90544922 -56.06917969 54.90544922 -55 54 Z " fill="#374741" transform="translate(128,688)"/>
<path d="M0 0 C1.32 0.66 2.64 1.32 4 2 C3.01 2.495 3.01 2.495 2 3 C1.566875 4.4540625 1.566875 4.4540625 1.125 5.9375 C-0.20937634 9.56996894 -0.68847769 9.46699871 -4 11 C-5.26413323 11.97719935 -6.49204891 13.00238299 -7.6875 14.0625 C-8.37972656 14.67351562 -9.07195313 15.28453125 -9.78515625 15.9140625 C-12.93246487 18.87819442 -15.83826929 22.06156748 -18.7265625 25.27734375 C-21.63150947 27.47851491 -23.44171812 27.33135863 -27 27 C-18 18 -9 9 0 0 Z " fill="#3F4F4A" transform="translate(534,324)"/>
<path d="M0 0 C4.58853845 2.91214131 9.12035675 7.49506629 11.87109375 12.1875 C11.87109375 13.5075 11.87109375 14.8275 11.87109375 16.1875 C7.04324565 14.63339271 3.58258476 11.87489666 -0.31640625 8.75 C-0.94482422 8.25951172 -1.57324219 7.76902344 -2.22070312 7.26367188 C-5.09246636 4.98776112 -7.06471512 3.28378669 -9.12890625 0.1875 C-5.81003525 -2.33484196 -3.64380003 -1.75529292 0 0 Z " fill="#E2E2DE" transform="translate(661.12890625,601.8125)"/>
<path d="M0 0 C-1.49096145 4.18196504 -3.8616989 5.33486662 -7.75 7.25 C-8.77609375 7.77078125 -9.8021875 8.2915625 -10.859375 8.828125 C-14.14504726 10.05412211 -16.5257182 10.22884491 -20 10 C-20.33 9.34 -20.66 8.68 -21 8 C-18.0707161 6.46293927 -15.13042886 4.94824838 -12.1875 3.4375 C-11.35412109 2.99986328 -10.52074219 2.56222656 -9.66210938 2.11132812 C-8.45844727 1.49741211 -8.45844727 1.49741211 -7.23046875 0.87109375 C-6.49207764 0.48880615 -5.75368652 0.10651855 -4.99291992 -0.28735352 C-3 -1 -3 -1 0 0 Z " fill="#E0E1DD" transform="translate(101,737)"/>
<path d="M0 0 C1.67578125 1.53125 1.67578125 1.53125 3 3 C0.73272667 4.17407021 -1.53834624 5.33939739 -3.8125 6.5 C-4.45509766 6.83386719 -5.09769531 7.16773438 -5.75976562 7.51171875 C-8.69547699 9.00239084 -10.66126517 10 -14 10 C-12.07301823 3.25556382 -7.2104844 -1.28186389 0 0 Z " fill="#54605A" transform="translate(75,746)"/>
<path d="M0 0 C-1 3 -1 3 -3.22265625 4.16796875 C-9.08788897 6.27364377 -13.76776367 7.47035746 -20 7 C-20 6.01 -20 5.02 -20 4 C-18.12577848 3.51779737 -16.25058246 3.03938167 -14.375 2.5625 C-12.80878906 2.16224609 -12.80878906 2.16224609 -11.2109375 1.75390625 C-3.74093264 0 -3.74093264 0 0 0 Z " fill="#495852" transform="translate(545,862)"/>
<path d="M0 0 C0 0.66 0 1.32 0 2 C2.475 2.99 2.475 2.99 5 4 C4.38245741 5.31602523 3.75571258 6.62773556 3.125 7.9375 C2.77695312 8.66839844 2.42890625 9.39929688 2.0703125 10.15234375 C1 12 1 12 -1 13 C-1.9765625 11.2421875 -2.953125 9.484375 -3.9296875 7.7265625 C-5.00897274 5.8387386 -5.00897274 5.8387386 -7 4 C-2.25 0 -2.25 0 0 0 Z " fill="#43514C" transform="translate(865,560)"/>
<path d="M0 0 C0.66 0.33 1.32 0.66 2 1 C2.59355614 3.64860427 2.74209269 6.29197322 3 9 C2.21625 9.185625 1.4325 9.37125 0.625 9.5625 C-2.39591977 10.82341699 -2.39591977 10.82341699 -3.125 14.5625 C-3.41375 15.696875 -3.7025 16.83125 -4 18 C-4.99 18.33 -5.98 18.66 -7 19 C-5.34464282 12.17792193 -3.37399268 6.16626248 0 0 Z " fill="#E1E1DC" transform="translate(534,332)"/>
<path d="M0 0 C0.33 0.99 0.66 1.98 1 3 C-0.14453125 4.9375 -0.14453125 4.9375 -1.8125 7 C-3.64945001 9.30382329 -5.36184039 11.54276059 -7 14 C-8.32 14 -9.64 14 -11 14 C-10.52590352 9.68269587 -7.96603297 7.66352539 -4.9375 4.75 C-4.01839844 3.85796875 -3.09929687 2.9659375 -2.15234375 2.046875 C-1.44207031 1.37140625 -0.73179687 0.6959375 0 0 Z " fill="#3F4F49" transform="translate(223,602)"/>
<path d="M0 0 C0.33 0 0.66 0 1 0 C1.125 7.75 1.125 7.75 0 10 C-0.99 10.33 -1.98 10.66 -3 11 C-3.33 12.65 -3.66 14.3 -4 16 C-4.99 16.33 -5.98 16.66 -7 17 C-5.50384129 10.62999095 -4.16650744 5.13869251 0 0 Z " fill="#D2D3CD" transform="translate(512,384)"/>
<path d="M0 0 C0.66 0 1.32 0 2 0 C2.68359375 1.765625 2.68359375 1.765625 3 4 C1.78515625 5.921875 1.78515625 5.921875 0.0625 7.75 C-0.50339844 8.36359375 -1.06929687 8.9771875 -1.65234375 9.609375 C-2.09707031 10.06828125 -2.54179687 10.5271875 -3 11 C-4.32 10.67 -5.64 10.34 -7 10 C-6.02223933 8.51990357 -5.0427506 7.04094856 -4.0625 5.5625 C-3.51722656 4.73878906 -2.97195312 3.91507813 -2.41015625 3.06640625 C-1 1 -1 1 0 0 Z " fill="#D4D5CF" transform="translate(184,681)"/>
<path d="M0 0 C0.33 0 0.66 0 1 0 C0.96519531 0.92232422 0.96519531 0.92232422 0.9296875 1.86328125 C0.91164063 2.67152344 0.89359375 3.47976563 0.875 4.3125 C0.84019531 5.51326172 0.84019531 5.51326172 0.8046875 6.73828125 C0.84182678 9.28388576 0.84182678 9.28388576 3 12 C0.6875 14.0625 0.6875 14.0625 -2 16 C-2.99 15.67 -3.98 15.34 -5 15 C-3.35 10.05 -1.7 5.1 0 0 Z " fill="#5A6761" transform="translate(284,646)"/>
<path d="M0 0 C-0.29326721 3.81247372 -0.50130068 6.3293354 -2.8125 9.4375 C-5 11 -5 11 -9 11 C-8.00561175 7.61907996 -4.22088617 0 0 0 Z " fill="#D9DAD5" transform="translate(195,670)"/>
<path d="M0 0 C0 0.99 0 1.98 0 3 C-3.06246747 4.78409802 -5.22079273 5.22880021 -8.75 5.125 C-9.54921875 5.10695313 -10.3484375 5.08890625 -11.171875 5.0703125 C-11.77515625 5.04710937 -12.3784375 5.02390625 -13 5 C-8.82383994 0.37639422 -6.09215567 -0.16922655 0 0 Z " fill="#DADAD3" transform="translate(156,712)"/>
<path d="M0 0 C7.4422658 -0.48801743 7.4422658 -0.48801743 10 1.75 C11 4 11 4 11 8 C6.40378078 6.5129879 3.53027653 4.20187872 0 1 C0 0.67 0 0.34 0 0 Z " fill="#BBBDBA" transform="translate(662,610)"/>
<path d="M0 0 C-1.59720719 4.3124594 -4.31633819 6.42143673 -8 9 C-10.375 8.8125 -10.375 8.8125 -12 8 C-10.33333333 6.33333333 -8.66666667 4.66666667 -7 3 C-6.484375 2.401875 -5.96875 1.80375 -5.4375 1.1875 C-4 0 -4 0 0 0 Z " fill="#3B4A44" transform="translate(436,425)"/>
<path d="M0 0 C0.33 0.99 0.66 1.98 1 3 C-0.43359375 5.26171875 -0.43359375 5.26171875 -2.4375 7.6875 C-3.09621094 8.49574219 -3.75492187 9.30398438 -4.43359375 10.13671875 C-5.20896484 11.05904297 -5.20896484 11.05904297 -6 12 C-7.32 11.67 -8.64 11.34 -10 11 C-6.79239749 7.19364503 -3.59253891 3.45436433 0 0 Z " fill="#45534D" transform="translate(468,391)"/>
<path d="M0 0 C1.74965358 -0.05429959 3.49979787 -0.09292823 5.25 -0.125 C6.22453125 -0.14820313 7.1990625 -0.17140625 8.203125 -0.1953125 C11.0196498 0.00137219 12.60949036 0.55431084 15 2 C10.15758367 3.33583899 6.06562383 4.25328119 1 4 C0.67 2.68 0.34 1.36 0 0 Z " fill="#CACCC9" transform="translate(455,751)"/>
<path d="M0 0 C4.95 0.33 9.9 0.66 15 1 C14.67 1.66 14.34 2.32 14 3 C11.12890625 3.484375 11.12890625 3.484375 7.5625 3.75 C5.80099609 3.89695312 5.80099609 3.89695312 4.00390625 4.046875 C1 4 1 4 -1 2 C-0.67 1.34 -0.34 0.68 0 0 Z " fill="#69726D" transform="translate(253,750)"/>
<path d="M0 0 C1.98 0.99 3.96 1.98 6 3 C3.07034088 5.92965912 0.319947 6.94133569 -3.8125 7.125 C-4.534375 7.08375 -5.25625 7.0425 -6 7 C-4.02 4.69 -2.04 2.38 0 0 Z " fill="#4B5A54" transform="translate(41,804)"/>
<path d="M0 0 C0 0.99 0 1.98 0 3 C-8.03571429 5.27678571 -8.03571429 5.27678571 -12 4 C-12 3.34 -12 2.68 -12 2 C-7.8803623 0.70756464 -4.33168317 -0.26252625 0 0 Z " fill="#56655F" transform="translate(156,751)"/>
<path d="M0 0 C2.97903734 2.97903734 4 5.80285329 4 10 C0.00499382 8.6302836 -2.80009492 6.74277578 -6 4 C-3.03 4.495 -3.03 4.495 0 5 C0 3.35 0 1.7 0 0 Z " fill="#C9CAC6" transform="translate(953,738)"/>
<path d="M0 0 C0.99 0.33 1.98 0.66 3 1 C2.66410006 4.13506611 1.97334828 5.025249 -0.375 7.25 C-3 9 -3 9 -6 9 C-4.47291037 5.56404834 -2.40072955 2.88087546 0 0 Z " fill="#D0D2CF" transform="translate(202,660)"/>
<path d="M0 0 C0.66 0.66 1.32 1.32 2 2 C1.67028521 5.29714793 1.3773161 6.6226839 -1 9 C-2.65 9 -4.3 9 -6 9 C-4.02 6.03 -2.04 3.06 0 0 Z " fill="#4B5853" transform="translate(432,665)"/>
<path d="M0 0 C3.3 0 6.6 0 10 0 C10 0.66 10 1.32 10 2 C10.99 2.33 11.98 2.66 13 3 C13 3.66 13 4.32 13 5 C11.01853549 4.55170486 9.03985789 4.09107502 7.0625 3.625 C5.96035156 3.36976563 4.85820313 3.11453125 3.72265625 2.8515625 C2.82417969 2.57054687 1.92570313 2.28953125 1 2 C0.67 1.34 0.34 0.68 0 0 Z " fill="#56625D" transform="translate(657,1006)"/>
<path d="M0 0 C0.66 0 1.32 0 2 0 C2.6875 1.625 2.6875 1.625 3 4 C1.5625 7.25 1.5625 7.25 0 10 C-1.32 9.34 -2.64 8.68 -4 8 C-2.68 5.36 -1.36 2.72 0 0 Z " fill="#D4D6D3" transform="translate(112,620)"/>
<path d="M0 0 C0.66 0.99 1.32 1.98 2 3 C1.375 4.9375 1.375 4.9375 0 7 C-3.125 7.75 -3.125 7.75 -6 8 C-3.375 2.25 -3.375 2.25 0 0 Z " fill="#D5D6D2" transform="translate(414,530)"/>
<path d="M0 0 C0.66 0 1.32 0 2 0 C3.10867421 3.42681118 3.06883276 4.82103483 1.75 8.25 C0 11 0 11 -3 12 C-2.01 8.04 -1.02 4.08 0 0 Z " fill="#CACDC6" transform="translate(484,449)"/>
</svg>
